<svg width="1440" height="900" viewBox="0 0 1440 900" fill="none" xmlns="http://www.w3.org/2000/svg">
    <path d="M30.338 982s414.546-498.187 683.006-282.105c213.181 171.608 360.366 73.177 373.196-88.087 9.79-123.513-190.819-292.965-153.179-363.384C992.268 138.185 1560.16 425.375 1733 632.321M14.303 964.503c8.27 5.43 417.078-483.448 686.888-270.038 125.326 99.12 227.781 107.309 294.959 66.971 46.25-27.84 73.93-81.796 79.5-147.474 10.13-122.392-184.065-291.672-145.327-364.59 59.92-112.824 616.337 159.972 800.817 363.039M-1.732 947.093c16.541 10.86 419.61-468.624 690.77-257.972 124.229 96.535 226.094 106.102 294.622 70.246 47.43-24.823 75.28-77.486 81.1-143.25 10.47-121.271-177.31-290.465-137.476-365.883 61.018-115.41 605.866 143.078 802.006 342.094M-17.767 929.682C7.045 945.886 404.29 475.884 676.885 683.778c123.132 93.948 224.406 104.895 294.285 73.521 48.7-21.893 76.71-73.177 82.79-139.113 11.06-120.065-170.477-289.259-129.63-367.09 62.031-117.996 595.49 126.098 803.18 321.236M-33.802 912.271C-.72 933.905 390.703 473.298 664.732 678.52c122.035 91.363 222.802 103.774 293.947 76.883 49.881-18.876 78.061-68.867 84.391-134.89 11.48-118.944-163.722-288.052-121.778-368.383 63.127-120.581 585.028 109.119 804.368 300.292M-49.837 894.86C-8.4 921.925 377.115 470.798 652.58 673.176c120.853 88.863 221.198 102.568 293.524 80.158 51.143-15.859 79.336-64.557 86.086-130.666 11.9-117.824-156.893-286.759-113.936-369.589 64.14-123.168 574.556 92.225 805.546 279.432M-65.872 877.45c49.708 32.494 429.315-409.237 706.299-209.618 119.756 86.278 219.595 101.447 293.187 83.433 52.409-12.842 80.686-60.334 87.686-126.443 12.32-116.703-150.138-285.552-106.084-370.882 65.237-125.753 564.094 75.246 806.724 258.575M-81.992 860.039c57.98 37.838 431.679-394.326 710.182-197.551 118.574 83.778 218.075 100.327 292.849 86.795 53.759-9.74 82.031-56.024 89.371-122.22 12.75-115.582-143.384-284.345-98.232-372.088 66.249-128.339 553.712 58.351 807.992 237.63M-98.027 842.628c66.25 43.268 433.958-379.415 714.064-185.398 117.393 81.279 216.641 99.293 292.512 90.071 55.109-6.723 83.382-51.715 90.977-118.083 13.164-114.376-136.55-283.139-90.387-373.381 67.263-130.925 543.251 41.372 809.181 216.771M-114.062 825.132C-39.541 873.83 322.174 460.714 603.884 651.8c116.211 78.866 215.122 98.259 292.09 93.346 56.46-3.62 84.732-47.406 92.665-113.859 13.501-113.256-129.799-281.933-82.538-374.588 68.36-133.511 532.779 24.392 810.359 195.827M-130.097 807.721c82.792 54.128 438.515-349.421 721.828-161.265 114.946 76.366 213.772 92.484 291.752 96.707 57.726 3.103 85.999-43.095 94.269-109.635 13.926-112.135-122.963-280.64-74.689-375.881 69.372-136.097 522.317 7.498 811.537 174.968M-146.132 790.31c91.062 59.472 440.709-334.423 725.626-149.197 113.764 73.952 212.252 96.362 291.415 99.982 59.16 2.672 87.348-38.786 95.956-105.412 14.263-111.015-116.211-279.433-66.84-377.088 70.469-138.682 511.855-9.481 812.725 154.11M-162.166 772.9c99.332 64.902 442.903-319.34 729.507-137.045 112.498 71.539 210.733 95.5 291.077 103.257 60.511 5.861 88.699-34.562 97.56-101.188 14.685-109.895-109.375-278.227-58.992-378.381 71.483-141.268 501.474-26.375 813.904 133.166m-1889.091 362.78c107.603 70.332 445.097-304.256 733.389-124.978 111.232 69.126 209.299 94.638 290.74 106.619 61.861 9.136 89.964-30.253 99.248-97.052 15.022-108.773-102.624-277.019-51.143-379.587 72.579-143.854 491.007-43.354 815.087 112.308M-194.236 738.078c115.873 75.762 447.207-289.086 737.271-112.911 109.882 66.712 207.78 93.777 290.318 109.894 63.212 12.326 91.315-25.943 100.852-92.828 15.359-107.567-95.873-275.813-43.295-380.88 73.592-146.439 480.54-60.334 816.27 91.363M-210.271 720.667c124.228 81.107 449.232-273.916 741.153-100.844 108.616 64.385 206.345 93.001 289.981 113.256 64.561 15.601 92.581-21.634 102.455-88.605 15.697-106.446-89.037-274.52-35.446-382.087 74.689-149.025 470.078-77.227 817.448 70.505M-226.306 703.257c132.5 86.536 451.342-258.661 745.036-88.691 107.265 61.971 204.825 92.138 289.642 116.444 65.828 18.876 93.931-17.324 104.143-84.381 16.035-105.326-82.285-273.313-27.597-383.38 75.702-151.611 459.612-94.207 818.632 49.646M-242.426 685.76c140.77 91.966 453.368-243.319 748.918-76.624 106 59.73 203.307 91.363 289.305 119.806 67.178 22.151 95.197-13.015 105.747-80.245 16.372-104.205-75.449-272.106-19.749-384.586 76.715-154.197 449.235-111.101 819.815 28.702M-258.461 668.349c149.041 97.397 455.309-227.976 752.801-64.557 104.649 57.489 201.703 90.673 288.883 123.167 68.444 25.513 96.463-8.791 107.434-76.021 16.71-103.085-68.697-270.899-11.9-385.793 77.812-156.782 438.773-128.08 820.993 7.844M-274.496 650.938c157.312 102.741 457.251-212.548 756.683-52.49 103.299 55.249 200.184 89.898 288.545 126.443 69.71 28.788 97.814-4.482 109.038-71.798 17.048-101.964-61.946-269.607-4.051-387.086 78.825-159.368 428.301-145.06 822.171-13.101M-290.531 633.528c165.583 108.17 459.192-197.034 760.565-40.338 101.949 53.008 198.581 89.208 288.208 129.718 70.976 32.15 99.079-.172 110.725-67.574 17.386-100.844-55.109-268.4 3.883-388.292 79.921-161.954 417.84-161.954 823.35-33.96M-306.566 616.117c173.853 113.601 461.048-181.433 764.447-28.271 100.599 50.767 197.062 88.433 287.87 132.994 72.242 35.511 100.346 4.137 112.33-63.351 17.723-99.723-48.359-267.194 11.73-389.586 80.935-164.539 407.459-178.933 824.539-54.817m-2016.951 385.62c182.124 119.031 462.905-165.746 768.329-16.204 99.164 48.526 195.374 87.743 287.533 136.355 73.508 38.787 101.611 8.361 114.017-59.213 17.976-98.603-41.522-265.987 19.58-390.792 82.031-167.04 396.992-195.914 825.802-75.763M-338.636 581.296c190.395 124.374 464.677-149.973 772.211-4.137 97.814 46.371 193.771 86.967 287.111 139.63 74.689 42.147 102.962 12.67 115.621-54.99 18.313-97.483-34.771-264.781 27.428-392.085 83.044-169.625 386.525-212.807 826.985-96.621M-354.671 563.885c198.665 129.804 466.45-134.114 776.094 7.93 96.378 44.216 192.166 86.277 286.773 142.991 75.955 45.51 104.227 16.98 117.308-50.766 18.651-96.362-27.934-263.488 35.277-393.292 84.142-172.21 376.059-229.787 828.169-117.565M-370.706 546.388c207.02 135.235 468.222-118.168 779.976 20.083 94.944 42.148 190.479 85.588 286.351 146.267 77.137 48.87 105.493 21.289 118.912-46.544 18.904-95.241-21.183-262.28 43.126-394.584C942.813 96.813 1223.26 24.93 1687 133.186M-386.741 528.978c215.207 140.664 469.91-102.137 783.773 32.149 93.594 40.079 188.876 84.812 286.098 149.542 78.403 52.146 106.76 25.513 120.6-42.406 19.158-94.121-14.431-261.074 50.975-395.791C940.872 95.09 1209.92 8.812 1685.23 113.19M-402.86 511.567c223.561 146.008 471.682-85.933 787.74 44.216 92.159 38.011 187.187 84.123 285.676 152.904 79.584 55.507 107.94 29.822 122.203-38.183 19.495-93.001-7.595-259.867 58.823-397.084C938.846 93.452 1196.33-7.22 1683.29 93.193M-418.895 494.156c231.832 151.439 473.285-69.643 791.622 56.283 90.809 35.942 185.499 83.434 285.338 156.265 80.766 58.869 109.207 34.132 123.892-33.959 19.748-91.88-.844-258.575 66.671-398.291C936.905 91.9 1182.92-23.079 1681.52 73.369M-434.93 476.746c240.103 156.868 474.973-53.267 795.504 68.436 89.374 33.959 183.812 82.657 285.001 159.454 81.947 62.23 110.304 38.355 125.495-29.736 19.832-90.76 5.992-257.368 74.52-399.584 89.374-185.14 323.82-314.513 834.07-221.943M-450.965 459.335c248.373 162.298 476.577-36.632 799.386 80.503 87.939 31.891 182.04 82.054 284.663 162.815 83.045 65.678 111.654 42.665 127.183-25.512 20.17-89.639 12.744-256.161 82.369-400.791C933.023 88.625 1155.99-55.056 1677.89 33.463M-467 441.924c325.004 212.29 593.632-145.06 1087.51 258.661 334.962 273.83-208.371-887.6 1055.44-687.205" stroke="url(#s84dds1dda)" stroke-miterlimit="10"/>
    <path d="M30.338 982s414.546-498.187 683.006-282.105c213.181 171.608 360.366 73.177 373.196-88.087 9.79-123.513-190.819-292.965-153.179-363.384C992.268 138.185 1560.16 425.375 1733 632.321M14.303 964.503c8.27 5.43 417.078-483.448 686.888-270.038 125.326 99.12 227.781 107.309 294.959 66.971 46.25-27.84 73.93-81.796 79.5-147.474 10.13-122.392-184.065-291.672-145.327-364.59 59.92-112.824 616.337 159.972 800.817 363.039M-1.732 947.093c16.541 10.86 419.61-468.624 690.77-257.972 124.229 96.535 226.094 106.102 294.622 70.246 47.43-24.823 75.28-77.486 81.1-143.25 10.47-121.271-177.31-290.465-137.476-365.883 61.018-115.41 605.866 143.078 802.006 342.094M-17.767 929.682C7.045 945.886 404.29 475.884 676.885 683.778c123.132 93.948 224.406 104.895 294.285 73.521 48.7-21.893 76.71-73.177 82.79-139.113 11.06-120.065-170.477-289.259-129.63-367.09 62.031-117.996 595.49 126.098 803.18 321.236M-33.802 912.271C-.72 933.905 390.703 473.298 664.732 678.52c122.035 91.363 222.802 103.774 293.947 76.883 49.881-18.876 78.061-68.867 84.391-134.89 11.48-118.944-163.722-288.052-121.778-368.383 63.127-120.581 585.028 109.119 804.368 300.292M-49.837 894.86C-8.4 921.925 377.115 470.798 652.58 673.176c120.853 88.863 221.198 102.568 293.524 80.158 51.143-15.859 79.336-64.557 86.086-130.666 11.9-117.824-156.893-286.759-113.936-369.589 64.14-123.168 574.556 92.225 805.546 279.432M-65.872 877.45c49.708 32.494 429.315-409.237 706.299-209.618 119.756 86.278 219.595 101.447 293.187 83.433 52.409-12.842 80.686-60.334 87.686-126.443 12.32-116.703-150.138-285.552-106.084-370.882 65.237-125.753 564.094 75.246 806.724 258.575M-81.992 860.039c57.98 37.838 431.679-394.326 710.182-197.551 118.574 83.778 218.075 100.327 292.849 86.795 53.759-9.74 82.031-56.024 89.371-122.22 12.75-115.582-143.384-284.345-98.232-372.088 66.249-128.339 553.712 58.351 807.992 237.63M-98.027 842.628c66.25 43.268 433.958-379.415 714.064-185.398 117.393 81.279 216.641 99.293 292.512 90.071 55.109-6.723 83.382-51.715 90.977-118.083 13.164-114.376-136.55-283.139-90.387-373.381 67.263-130.925 543.251 41.372 809.181 216.771M-114.062 825.132C-39.541 873.83 322.174 460.714 603.884 651.8c116.211 78.866 215.122 98.259 292.09 93.346 56.46-3.62 84.732-47.406 92.665-113.859 13.501-113.256-129.799-281.933-82.538-374.588 68.36-133.511 532.779 24.392 810.359 195.827M-130.097 807.721c82.792 54.128 438.515-349.421 721.828-161.265 114.946 76.366 213.772 92.484 291.752 96.707 57.726 3.103 85.999-43.095 94.269-109.635 13.926-112.135-122.963-280.64-74.689-375.881 69.372-136.097 522.317 7.498 811.537 174.968M-146.132 790.31c91.062 59.472 440.709-334.423 725.626-149.197 113.764 73.952 212.252 96.362 291.415 99.982 59.16 2.672 87.348-38.786 95.956-105.412 14.263-111.015-116.211-279.433-66.84-377.088 70.469-138.682 511.855-9.481 812.725 154.11M-162.166 772.9c99.332 64.902 442.903-319.34 729.507-137.045 112.498 71.539 210.733 95.5 291.077 103.257 60.511 5.861 88.699-34.562 97.56-101.188 14.685-109.895-109.375-278.227-58.992-378.381 71.483-141.268 501.474-26.375 813.904 133.166m-1889.091 362.78c107.603 70.332 445.097-304.256 733.389-124.978 111.232 69.126 209.299 94.638 290.74 106.619 61.861 9.136 89.964-30.253 99.248-97.052 15.022-108.773-102.624-277.019-51.143-379.587 72.579-143.854 491.007-43.354 815.087 112.308M-194.236 738.078c115.873 75.762 447.207-289.086 737.271-112.911 109.882 66.712 207.78 93.777 290.318 109.894 63.212 12.326 91.315-25.943 100.852-92.828 15.359-107.567-95.873-275.813-43.295-380.88 73.592-146.439 480.54-60.334 816.27 91.363M-210.271 720.667c124.228 81.107 449.232-273.916 741.153-100.844 108.616 64.385 206.345 93.001 289.981 113.256 64.561 15.601 92.581-21.634 102.455-88.605 15.697-106.446-89.037-274.52-35.446-382.087 74.689-149.025 470.078-77.227 817.448 70.505M-226.306 703.257c132.5 86.536 451.342-258.661 745.036-88.691 107.265 61.971 204.825 92.138 289.642 116.444 65.828 18.876 93.931-17.324 104.143-84.381 16.035-105.326-82.285-273.313-27.597-383.38 75.702-151.611 459.612-94.207 818.632 49.646M-242.426 685.76c140.77 91.966 453.368-243.319 748.918-76.624 106 59.73 203.307 91.363 289.305 119.806 67.178 22.151 95.197-13.015 105.747-80.245 16.372-104.205-75.449-272.106-19.749-384.586 76.715-154.197 449.235-111.101 819.815 28.702M-258.461 668.349c149.041 97.397 455.309-227.976 752.801-64.557 104.649 57.489 201.703 90.673 288.883 123.167 68.444 25.513 96.463-8.791 107.434-76.021 16.71-103.085-68.697-270.899-11.9-385.793 77.812-156.782 438.773-128.08 820.993 7.844M-274.496 650.938c157.312 102.741 457.251-212.548 756.683-52.49 103.299 55.249 200.184 89.898 288.545 126.443 69.71 28.788 97.814-4.482 109.038-71.798 17.048-101.964-61.946-269.607-4.051-387.086 78.825-159.368 428.301-145.06 822.171-13.101M-290.531 633.528c165.583 108.17 459.192-197.034 760.565-40.338 101.949 53.008 198.581 89.208 288.208 129.718 70.976 32.15 99.079-.172 110.725-67.574 17.386-100.844-55.109-268.4 3.883-388.292 79.921-161.954 417.84-161.954 823.35-33.96M-306.566 616.117c173.853 113.601 461.048-181.433 764.447-28.271 100.599 50.767 197.062 88.433 287.87 132.994 72.242 35.511 100.346 4.137 112.33-63.351 17.723-99.723-48.359-267.194 11.73-389.586 80.935-164.539 407.459-178.933 824.539-54.817m-2016.951 385.62c182.124 119.031 462.905-165.746 768.329-16.204 99.164 48.526 195.374 87.743 287.533 136.355 73.508 38.787 101.611 8.361 114.017-59.213 17.976-98.603-41.522-265.987 19.58-390.792 82.031-167.04 396.992-195.914 825.802-75.763M-338.636 581.296c190.395 124.374 464.677-149.973 772.211-4.137 97.814 46.371 193.771 86.967 287.111 139.63 74.689 42.147 102.962 12.67 115.621-54.99 18.313-97.483-34.771-264.781 27.428-392.085 83.044-169.625 386.525-212.807 826.985-96.621M-354.671 563.885c198.665 129.804 466.45-134.114 776.094 7.93 96.378 44.216 192.166 86.277 286.773 142.991 75.955 45.51 104.227 16.98 117.308-50.766 18.651-96.362-27.934-263.488 35.277-393.292 84.142-172.21 376.059-229.787 828.169-117.565M-370.706 546.388c207.02 135.235 468.222-118.168 779.976 20.083 94.944 42.148 190.479 85.588 286.351 146.267 77.137 48.87 105.493 21.289 118.912-46.544 18.904-95.241-21.183-262.28 43.126-394.584C942.813 96.813 1223.26 24.93 1687 133.186M-386.741 528.978c215.207 140.664 469.91-102.137 783.773 32.149 93.594 40.079 188.876 84.812 286.098 149.542 78.403 52.146 106.76 25.513 120.6-42.406 19.158-94.121-14.431-261.074 50.975-395.791C940.872 95.09 1209.92 8.812 1685.23 113.19M-402.86 511.567c223.561 146.008 471.682-85.933 787.74 44.216 92.159 38.011 187.187 84.123 285.676 152.904 79.584 55.507 107.94 29.822 122.203-38.183 19.495-93.001-7.595-259.867 58.823-397.084C938.846 93.452 1196.33-7.22 1683.29 93.193M-418.895 494.156c231.832 151.439 473.285-69.643 791.622 56.283 90.809 35.942 185.499 83.434 285.338 156.265 80.766 58.869 109.207 34.132 123.892-33.959 19.748-91.88-.844-258.575 66.671-398.291C936.905 91.9 1182.92-23.079 1681.52 73.369M-434.93 476.746c240.103 156.868 474.973-53.267 795.504 68.436 89.374 33.959 183.812 82.657 285.001 159.454 81.947 62.23 110.304 38.355 125.495-29.736 19.832-90.76 5.992-257.368 74.52-399.584 89.374-185.14 323.82-314.513 834.07-221.943M-450.965 459.335c248.373 162.298 476.577-36.632 799.386 80.503 87.939 31.891 182.04 82.054 284.663 162.815 83.045 65.678 111.654 42.665 127.183-25.512 20.17-89.639 12.744-256.161 82.369-400.791C933.023 88.625 1155.99-55.056 1677.89 33.463M-467 441.924c325.004 212.29 593.632-145.06 1087.51 258.661 334.962 273.83-208.371-887.6 1055.44-687.205" stroke="url(#ok2fx8gt1b)" stroke-opacity=".96" stroke-miterlimit="10"/>
    <path d="M30.338 982s414.546-498.187 683.006-282.105c213.181 171.608 360.366 73.177 373.196-88.087 9.79-123.513-190.819-292.965-153.179-363.384C992.268 138.185 1560.16 425.375 1733 632.321M14.303 964.503c8.27 5.43 417.078-483.448 686.888-270.038 125.326 99.12 227.781 107.309 294.959 66.971 46.25-27.84 73.93-81.796 79.5-147.474 10.13-122.392-184.065-291.672-145.327-364.59 59.92-112.824 616.337 159.972 800.817 363.039M-1.732 947.093c16.541 10.86 419.61-468.624 690.77-257.972 124.229 96.535 226.094 106.102 294.622 70.246 47.43-24.823 75.28-77.486 81.1-143.25 10.47-121.271-177.31-290.465-137.476-365.883 61.018-115.41 605.866 143.078 802.006 342.094M-17.767 929.682C7.045 945.886 404.29 475.884 676.885 683.778c123.132 93.948 224.406 104.895 294.285 73.521 48.7-21.893 76.71-73.177 82.79-139.113 11.06-120.065-170.477-289.259-129.63-367.09 62.031-117.996 595.49 126.098 803.18 321.236M-33.802 912.271C-.72 933.905 390.703 473.298 664.732 678.52c122.035 91.363 222.802 103.774 293.947 76.883 49.881-18.876 78.061-68.867 84.391-134.89 11.48-118.944-163.722-288.052-121.778-368.383 63.127-120.581 585.028 109.119 804.368 300.292M-49.837 894.86C-8.4 921.925 377.115 470.798 652.58 673.176c120.853 88.863 221.198 102.568 293.524 80.158 51.143-15.859 79.336-64.557 86.086-130.666 11.9-117.824-156.893-286.759-113.936-369.589 64.14-123.168 574.556 92.225 805.546 279.432M-65.872 877.45c49.708 32.494 429.315-409.237 706.299-209.618 119.756 86.278 219.595 101.447 293.187 83.433 52.409-12.842 80.686-60.334 87.686-126.443 12.32-116.703-150.138-285.552-106.084-370.882 65.237-125.753 564.094 75.246 806.724 258.575M-81.992 860.039c57.98 37.838 431.679-394.326 710.182-197.551 118.574 83.778 218.075 100.327 292.849 86.795 53.759-9.74 82.031-56.024 89.371-122.22 12.75-115.582-143.384-284.345-98.232-372.088 66.249-128.339 553.712 58.351 807.992 237.63M-98.027 842.628c66.25 43.268 433.958-379.415 714.064-185.398 117.393 81.279 216.641 99.293 292.512 90.071 55.109-6.723 83.382-51.715 90.977-118.083 13.164-114.376-136.55-283.139-90.387-373.381 67.263-130.925 543.251 41.372 809.181 216.771M-114.062 825.132C-39.541 873.83 322.174 460.714 603.884 651.8c116.211 78.866 215.122 98.259 292.09 93.346 56.46-3.62 84.732-47.406 92.665-113.859 13.501-113.256-129.799-281.933-82.538-374.588 68.36-133.511 532.779 24.392 810.359 195.827M-130.097 807.721c82.792 54.128 438.515-349.421 721.828-161.265 114.946 76.366 213.772 92.484 291.752 96.707 57.726 3.103 85.999-43.095 94.269-109.635 13.926-112.135-122.963-280.64-74.689-375.881 69.372-136.097 522.317 7.498 811.537 174.968M-146.132 790.31c91.062 59.472 440.709-334.423 725.626-149.197 113.764 73.952 212.252 96.362 291.415 99.982 59.16 2.672 87.348-38.786 95.956-105.412 14.263-111.015-116.211-279.433-66.84-377.088 70.469-138.682 511.855-9.481 812.725 154.11M-162.166 772.9c99.332 64.902 442.903-319.34 729.507-137.045 112.498 71.539 210.733 95.5 291.077 103.257 60.511 5.861 88.699-34.562 97.56-101.188 14.685-109.895-109.375-278.227-58.992-378.381 71.483-141.268 501.474-26.375 813.904 133.166m-1889.091 362.78c107.603 70.332 445.097-304.256 733.389-124.978 111.232 69.126 209.299 94.638 290.74 106.619 61.861 9.136 89.964-30.253 99.248-97.052 15.022-108.773-102.624-277.019-51.143-379.587 72.579-143.854 491.007-43.354 815.087 112.308M-194.236 738.078c115.873 75.762 447.207-289.086 737.271-112.911 109.882 66.712 207.78 93.777 290.318 109.894 63.212 12.326 91.315-25.943 100.852-92.828 15.359-107.567-95.873-275.813-43.295-380.88 73.592-146.439 480.54-60.334 816.27 91.363M-210.271 720.667c124.228 81.107 449.232-273.916 741.153-100.844 108.616 64.385 206.345 93.001 289.981 113.256 64.561 15.601 92.581-21.634 102.455-88.605 15.697-106.446-89.037-274.52-35.446-382.087 74.689-149.025 470.078-77.227 817.448 70.505M-226.306 703.257c132.5 86.536 451.342-258.661 745.036-88.691 107.265 61.971 204.825 92.138 289.642 116.444 65.828 18.876 93.931-17.324 104.143-84.381 16.035-105.326-82.285-273.313-27.597-383.38 75.702-151.611 459.612-94.207 818.632 49.646M-242.426 685.76c140.77 91.966 453.368-243.319 748.918-76.624 106 59.73 203.307 91.363 289.305 119.806 67.178 22.151 95.197-13.015 105.747-80.245 16.372-104.205-75.449-272.106-19.749-384.586 76.715-154.197 449.235-111.101 819.815 28.702M-258.461 668.349c149.041 97.397 455.309-227.976 752.801-64.557 104.649 57.489 201.703 90.673 288.883 123.167 68.444 25.513 96.463-8.791 107.434-76.021 16.71-103.085-68.697-270.899-11.9-385.793 77.812-156.782 438.773-128.08 820.993 7.844M-274.496 650.938c157.312 102.741 457.251-212.548 756.683-52.49 103.299 55.249 200.184 89.898 288.545 126.443 69.71 28.788 97.814-4.482 109.038-71.798 17.048-101.964-61.946-269.607-4.051-387.086 78.825-159.368 428.301-145.06 822.171-13.101M-290.531 633.528c165.583 108.17 459.192-197.034 760.565-40.338 101.949 53.008 198.581 89.208 288.208 129.718 70.976 32.15 99.079-.172 110.725-67.574 17.386-100.844-55.109-268.4 3.883-388.292 79.921-161.954 417.84-161.954 823.35-33.96M-306.566 616.117c173.853 113.601 461.048-181.433 764.447-28.271 100.599 50.767 197.062 88.433 287.87 132.994 72.242 35.511 100.346 4.137 112.33-63.351 17.723-99.723-48.359-267.194 11.73-389.586 80.935-164.539 407.459-178.933 824.539-54.817m-2016.951 385.62c182.124 119.031 462.905-165.746 768.329-16.204 99.164 48.526 195.374 87.743 287.533 136.355 73.508 38.787 101.611 8.361 114.017-59.213 17.976-98.603-41.522-265.987 19.58-390.792 82.031-167.04 396.992-195.914 825.802-75.763M-338.636 581.296c190.395 124.374 464.677-149.973 772.211-4.137 97.814 46.371 193.771 86.967 287.111 139.63 74.689 42.147 102.962 12.67 115.621-54.99 18.313-97.483-34.771-264.781 27.428-392.085 83.044-169.625 386.525-212.807 826.985-96.621M-354.671 563.885c198.665 129.804 466.45-134.114 776.094 7.93 96.378 44.216 192.166 86.277 286.773 142.991 75.955 45.51 104.227 16.98 117.308-50.766 18.651-96.362-27.934-263.488 35.277-393.292 84.142-172.21 376.059-229.787 828.169-117.565M-370.706 546.388c207.02 135.235 468.222-118.168 779.976 20.083 94.944 42.148 190.479 85.588 286.351 146.267 77.137 48.87 105.493 21.289 118.912-46.544 18.904-95.241-21.183-262.28 43.126-394.584C942.813 96.813 1223.26 24.93 1687 133.186M-386.741 528.978c215.207 140.664 469.91-102.137 783.773 32.149 93.594 40.079 188.876 84.812 286.098 149.542 78.403 52.146 106.76 25.513 120.6-42.406 19.158-94.121-14.431-261.074 50.975-395.791C940.872 95.09 1209.92 8.812 1685.23 113.19M-402.86 511.567c223.561 146.008 471.682-85.933 787.74 44.216 92.159 38.011 187.187 84.123 285.676 152.904 79.584 55.507 107.94 29.822 122.203-38.183 19.495-93.001-7.595-259.867 58.823-397.084C938.846 93.452 1196.33-7.22 1683.29 93.193M-418.895 494.156c231.832 151.439 473.285-69.643 791.622 56.283 90.809 35.942 185.499 83.434 285.338 156.265 80.766 58.869 109.207 34.132 123.892-33.959 19.748-91.88-.844-258.575 66.671-398.291C936.905 91.9 1182.92-23.079 1681.52 73.369M-434.93 476.746c240.103 156.868 474.973-53.267 795.504 68.436 89.374 33.959 183.812 82.657 285.001 159.454 81.947 62.23 110.304 38.355 125.495-29.736 19.832-90.76 5.992-257.368 74.52-399.584 89.374-185.14 323.82-314.513 834.07-221.943M-450.965 459.335c248.373 162.298 476.577-36.632 799.386 80.503 87.939 31.891 182.04 82.054 284.663 162.815 83.045 65.678 111.654 42.665 127.183-25.512 20.17-89.639 12.744-256.161 82.369-400.791C933.023 88.625 1155.99-55.056 1677.89 33.463M-467 441.924c325.004 212.29 593.632-145.06 1087.51 258.661 334.962 273.83-208.371-887.6 1055.44-687.205" stroke="url(#a4meu3dz9c)" stroke-opacity=".96" stroke-miterlimit="10"/>
    <path d="M30.338 982s414.546-498.187 683.006-282.105c213.181 171.608 360.366 73.177 373.196-88.087 9.79-123.513-190.819-292.965-153.179-363.384C992.268 138.185 1560.16 425.375 1733 632.321M14.303 964.503c8.27 5.43 417.078-483.448 686.888-270.038 125.326 99.12 227.781 107.309 294.959 66.971 46.25-27.84 73.93-81.796 79.5-147.474 10.13-122.392-184.065-291.672-145.327-364.59 59.92-112.824 616.337 159.972 800.817 363.039M-1.732 947.093c16.541 10.86 419.61-468.624 690.77-257.972 124.229 96.535 226.094 106.102 294.622 70.246 47.43-24.823 75.28-77.486 81.1-143.25 10.47-121.271-177.31-290.465-137.476-365.883 61.018-115.41 605.866 143.078 802.006 342.094M-17.767 929.682C7.045 945.886 404.29 475.884 676.885 683.778c123.132 93.948 224.406 104.895 294.285 73.521 48.7-21.893 76.71-73.177 82.79-139.113 11.06-120.065-170.477-289.259-129.63-367.09 62.031-117.996 595.49 126.098 803.18 321.236M-33.802 912.271C-.72 933.905 390.703 473.298 664.732 678.52c122.035 91.363 222.802 103.774 293.947 76.883 49.881-18.876 78.061-68.867 84.391-134.89 11.48-118.944-163.722-288.052-121.778-368.383 63.127-120.581 585.028 109.119 804.368 300.292M-49.837 894.86C-8.4 921.925 377.115 470.798 652.58 673.176c120.853 88.863 221.198 102.568 293.524 80.158 51.143-15.859 79.336-64.557 86.086-130.666 11.9-117.824-156.893-286.759-113.936-369.589 64.14-123.168 574.556 92.225 805.546 279.432M-65.872 877.45c49.708 32.494 429.315-409.237 706.299-209.618 119.756 86.278 219.595 101.447 293.187 83.433 52.409-12.842 80.686-60.334 87.686-126.443 12.32-116.703-150.138-285.552-106.084-370.882 65.237-125.753 564.094 75.246 806.724 258.575M-81.992 860.039c57.98 37.838 431.679-394.326 710.182-197.551 118.574 83.778 218.075 100.327 292.849 86.795 53.759-9.74 82.031-56.024 89.371-122.22 12.75-115.582-143.384-284.345-98.232-372.088 66.249-128.339 553.712 58.351 807.992 237.63M-98.027 842.628c66.25 43.268 433.958-379.415 714.064-185.398 117.393 81.279 216.641 99.293 292.512 90.071 55.109-6.723 83.382-51.715 90.977-118.083 13.164-114.376-136.55-283.139-90.387-373.381 67.263-130.925 543.251 41.372 809.181 216.771M-114.062 825.132C-39.541 873.83 322.174 460.714 603.884 651.8c116.211 78.866 215.122 98.259 292.09 93.346 56.46-3.62 84.732-47.406 92.665-113.859 13.501-113.256-129.799-281.933-82.538-374.588 68.36-133.511 532.779 24.392 810.359 195.827M-130.097 807.721c82.792 54.128 438.515-349.421 721.828-161.265 114.946 76.366 213.772 92.484 291.752 96.707 57.726 3.103 85.999-43.095 94.269-109.635 13.926-112.135-122.963-280.64-74.689-375.881 69.372-136.097 522.317 7.498 811.537 174.968M-146.132 790.31c91.062 59.472 440.709-334.423 725.626-149.197 113.764 73.952 212.252 96.362 291.415 99.982 59.16 2.672 87.348-38.786 95.956-105.412 14.263-111.015-116.211-279.433-66.84-377.088 70.469-138.682 511.855-9.481 812.725 154.11M-162.166 772.9c99.332 64.902 442.903-319.34 729.507-137.045 112.498 71.539 210.733 95.5 291.077 103.257 60.511 5.861 88.699-34.562 97.56-101.188 14.685-109.895-109.375-278.227-58.992-378.381 71.483-141.268 501.474-26.375 813.904 133.166m-1889.091 362.78c107.603 70.332 445.097-304.256 733.389-124.978 111.232 69.126 209.299 94.638 290.74 106.619 61.861 9.136 89.964-30.253 99.248-97.052 15.022-108.773-102.624-277.019-51.143-379.587 72.579-143.854 491.007-43.354 815.087 112.308M-194.236 738.078c115.873 75.762 447.207-289.086 737.271-112.911 109.882 66.712 207.78 93.777 290.318 109.894 63.212 12.326 91.315-25.943 100.852-92.828 15.359-107.567-95.873-275.813-43.295-380.88 73.592-146.439 480.54-60.334 816.27 91.363M-210.271 720.667c124.228 81.107 449.232-273.916 741.153-100.844 108.616 64.385 206.345 93.001 289.981 113.256 64.561 15.601 92.581-21.634 102.455-88.605 15.697-106.446-89.037-274.52-35.446-382.087 74.689-149.025 470.078-77.227 817.448 70.505M-226.306 703.257c132.5 86.536 451.342-258.661 745.036-88.691 107.265 61.971 204.825 92.138 289.642 116.444 65.828 18.876 93.931-17.324 104.143-84.381 16.035-105.326-82.285-273.313-27.597-383.38 75.702-151.611 459.612-94.207 818.632 49.646M-242.426 685.76c140.77 91.966 453.368-243.319 748.918-76.624 106 59.73 203.307 91.363 289.305 119.806 67.178 22.151 95.197-13.015 105.747-80.245 16.372-104.205-75.449-272.106-19.749-384.586 76.715-154.197 449.235-111.101 819.815 28.702M-258.461 668.349c149.041 97.397 455.309-227.976 752.801-64.557 104.649 57.489 201.703 90.673 288.883 123.167 68.444 25.513 96.463-8.791 107.434-76.021 16.71-103.085-68.697-270.899-11.9-385.793 77.812-156.782 438.773-128.08 820.993 7.844M-274.496 650.938c157.312 102.741 457.251-212.548 756.683-52.49 103.299 55.249 200.184 89.898 288.545 126.443 69.71 28.788 97.814-4.482 109.038-71.798 17.048-101.964-61.946-269.607-4.051-387.086 78.825-159.368 428.301-145.06 822.171-13.101M-290.531 633.528c165.583 108.17 459.192-197.034 760.565-40.338 101.949 53.008 198.581 89.208 288.208 129.718 70.976 32.15 99.079-.172 110.725-67.574 17.386-100.844-55.109-268.4 3.883-388.292 79.921-161.954 417.84-161.954 823.35-33.96M-306.566 616.117c173.853 113.601 461.048-181.433 764.447-28.271 100.599 50.767 197.062 88.433 287.87 132.994 72.242 35.511 100.346 4.137 112.33-63.351 17.723-99.723-48.359-267.194 11.73-389.586 80.935-164.539 407.459-178.933 824.539-54.817m-2016.951 385.62c182.124 119.031 462.905-165.746 768.329-16.204 99.164 48.526 195.374 87.743 287.533 136.355 73.508 38.787 101.611 8.361 114.017-59.213 17.976-98.603-41.522-265.987 19.58-390.792 82.031-167.04 396.992-195.914 825.802-75.763M-338.636 581.296c190.395 124.374 464.677-149.973 772.211-4.137 97.814 46.371 193.771 86.967 287.111 139.63 74.689 42.147 102.962 12.67 115.621-54.99 18.313-97.483-34.771-264.781 27.428-392.085 83.044-169.625 386.525-212.807 826.985-96.621M-354.671 563.885c198.665 129.804 466.45-134.114 776.094 7.93 96.378 44.216 192.166 86.277 286.773 142.991 75.955 45.51 104.227 16.98 117.308-50.766 18.651-96.362-27.934-263.488 35.277-393.292 84.142-172.21 376.059-229.787 828.169-117.565M-370.706 546.388c207.02 135.235 468.222-118.168 779.976 20.083 94.944 42.148 190.479 85.588 286.351 146.267 77.137 48.87 105.493 21.289 118.912-46.544 18.904-95.241-21.183-262.28 43.126-394.584C942.813 96.813 1223.26 24.93 1687 133.186M-386.741 528.978c215.207 140.664 469.91-102.137 783.773 32.149 93.594 40.079 188.876 84.812 286.098 149.542 78.403 52.146 106.76 25.513 120.6-42.406 19.158-94.121-14.431-261.074 50.975-395.791C940.872 95.09 1209.92 8.812 1685.23 113.19M-402.86 511.567c223.561 146.008 471.682-85.933 787.74 44.216 92.159 38.011 187.187 84.123 285.676 152.904 79.584 55.507 107.94 29.822 122.203-38.183 19.495-93.001-7.595-259.867 58.823-397.084C938.846 93.452 1196.33-7.22 1683.29 93.193M-418.895 494.156c231.832 151.439 473.285-69.643 791.622 56.283 90.809 35.942 185.499 83.434 285.338 156.265 80.766 58.869 109.207 34.132 123.892-33.959 19.748-91.88-.844-258.575 66.671-398.291C936.905 91.9 1182.92-23.079 1681.52 73.369M-434.93 476.746c240.103 156.868 474.973-53.267 795.504 68.436 89.374 33.959 183.812 82.657 285.001 159.454 81.947 62.23 110.304 38.355 125.495-29.736 19.832-90.76 5.992-257.368 74.52-399.584 89.374-185.14 323.82-314.513 834.07-221.943M-450.965 459.335c248.373 162.298 476.577-36.632 799.386 80.503 87.939 31.891 182.04 82.054 284.663 162.815 83.045 65.678 111.654 42.665 127.183-25.512 20.17-89.639 12.744-256.161 82.369-400.791C933.023 88.625 1155.99-55.056 1677.89 33.463M-467 441.924c325.004 212.29 593.632-145.06 1087.51 258.661 334.962 273.83-208.371-887.6 1055.44-687.205" stroke="url(#m82x71jwsd)" stroke-miterlimit="10"/>
    <path d="M30.338 982s414.546-498.187 683.006-282.105c213.181 171.608 360.366 73.177 373.196-88.087 9.79-123.513-190.819-292.965-153.179-363.384C992.268 138.185 1560.16 425.375 1733 632.321M14.303 964.503c8.27 5.43 417.078-483.448 686.888-270.038 125.326 99.12 227.781 107.309 294.959 66.971 46.25-27.84 73.93-81.796 79.5-147.474 10.13-122.392-184.065-291.672-145.327-364.59 59.92-112.824 616.337 159.972 800.817 363.039M-1.732 947.093c16.541 10.86 419.61-468.624 690.77-257.972 124.229 96.535 226.094 106.102 294.622 70.246 47.43-24.823 75.28-77.486 81.1-143.25 10.47-121.271-177.31-290.465-137.476-365.883 61.018-115.41 605.866 143.078 802.006 342.094M-17.767 929.682C7.045 945.886 404.29 475.884 676.885 683.778c123.132 93.948 224.406 104.895 294.285 73.521 48.7-21.893 76.71-73.177 82.79-139.113 11.06-120.065-170.477-289.259-129.63-367.09 62.031-117.996 595.49 126.098 803.18 321.236M-33.802 912.271C-.72 933.905 390.703 473.298 664.732 678.52c122.035 91.363 222.802 103.774 293.947 76.883 49.881-18.876 78.061-68.867 84.391-134.89 11.48-118.944-163.722-288.052-121.778-368.383 63.127-120.581 585.028 109.119 804.368 300.292M-49.837 894.86C-8.4 921.925 377.115 470.798 652.58 673.176c120.853 88.863 221.198 102.568 293.524 80.158 51.143-15.859 79.336-64.557 86.086-130.666 11.9-117.824-156.893-286.759-113.936-369.589 64.14-123.168 574.556 92.225 805.546 279.432M-65.872 877.45c49.708 32.494 429.315-409.237 706.299-209.618 119.756 86.278 219.595 101.447 293.187 83.433 52.409-12.842 80.686-60.334 87.686-126.443 12.32-116.703-150.138-285.552-106.084-370.882 65.237-125.753 564.094 75.246 806.724 258.575M-81.992 860.039c57.98 37.838 431.679-394.326 710.182-197.551 118.574 83.778 218.075 100.327 292.849 86.795 53.759-9.74 82.031-56.024 89.371-122.22 12.75-115.582-143.384-284.345-98.232-372.088 66.249-128.339 553.712 58.351 807.992 237.63M-98.027 842.628c66.25 43.268 433.958-379.415 714.064-185.398 117.393 81.279 216.641 99.293 292.512 90.071 55.109-6.723 83.382-51.715 90.977-118.083 13.164-114.376-136.55-283.139-90.387-373.381 67.263-130.925 543.251 41.372 809.181 216.771M-114.062 825.132C-39.541 873.83 322.174 460.714 603.884 651.8c116.211 78.866 215.122 98.259 292.09 93.346 56.46-3.62 84.732-47.406 92.665-113.859 13.501-113.256-129.799-281.933-82.538-374.588 68.36-133.511 532.779 24.392 810.359 195.827M-130.097 807.721c82.792 54.128 438.515-349.421 721.828-161.265 114.946 76.366 213.772 92.484 291.752 96.707 57.726 3.103 85.999-43.095 94.269-109.635 13.926-112.135-122.963-280.64-74.689-375.881 69.372-136.097 522.317 7.498 811.537 174.968M-146.132 790.31c91.062 59.472 440.709-334.423 725.626-149.197 113.764 73.952 212.252 96.362 291.415 99.982 59.16 2.672 87.348-38.786 95.956-105.412 14.263-111.015-116.211-279.433-66.84-377.088 70.469-138.682 511.855-9.481 812.725 154.11M-162.166 772.9c99.332 64.902 442.903-319.34 729.507-137.045 112.498 71.539 210.733 95.5 291.077 103.257 60.511 5.861 88.699-34.562 97.56-101.188 14.685-109.895-109.375-278.227-58.992-378.381 71.483-141.268 501.474-26.375 813.904 133.166m-1889.091 362.78c107.603 70.332 445.097-304.256 733.389-124.978 111.232 69.126 209.299 94.638 290.74 106.619 61.861 9.136 89.964-30.253 99.248-97.052 15.022-108.773-102.624-277.019-51.143-379.587 72.579-143.854 491.007-43.354 815.087 112.308M-194.236 738.078c115.873 75.762 447.207-289.086 737.271-112.911 109.882 66.712 207.78 93.777 290.318 109.894 63.212 12.326 91.315-25.943 100.852-92.828 15.359-107.567-95.873-275.813-43.295-380.88 73.592-146.439 480.54-60.334 816.27 91.363M-210.271 720.667c124.228 81.107 449.232-273.916 741.153-100.844 108.616 64.385 206.345 93.001 289.981 113.256 64.561 15.601 92.581-21.634 102.455-88.605 15.697-106.446-89.037-274.52-35.446-382.087 74.689-149.025 470.078-77.227 817.448 70.505M-226.306 703.257c132.5 86.536 451.342-258.661 745.036-88.691 107.265 61.971 204.825 92.138 289.642 116.444 65.828 18.876 93.931-17.324 104.143-84.381 16.035-105.326-82.285-273.313-27.597-383.38 75.702-151.611 459.612-94.207 818.632 49.646M-242.426 685.76c140.77 91.966 453.368-243.319 748.918-76.624 106 59.73 203.307 91.363 289.305 119.806 67.178 22.151 95.197-13.015 105.747-80.245 16.372-104.205-75.449-272.106-19.749-384.586 76.715-154.197 449.235-111.101 819.815 28.702M-258.461 668.349c149.041 97.397 455.309-227.976 752.801-64.557 104.649 57.489 201.703 90.673 288.883 123.167 68.444 25.513 96.463-8.791 107.434-76.021 16.71-103.085-68.697-270.899-11.9-385.793 77.812-156.782 438.773-128.08 820.993 7.844M-274.496 650.938c157.312 102.741 457.251-212.548 756.683-52.49 103.299 55.249 200.184 89.898 288.545 126.443 69.71 28.788 97.814-4.482 109.038-71.798 17.048-101.964-61.946-269.607-4.051-387.086 78.825-159.368 428.301-145.06 822.171-13.101M-290.531 633.528c165.583 108.17 459.192-197.034 760.565-40.338 101.949 53.008 198.581 89.208 288.208 129.718 70.976 32.15 99.079-.172 110.725-67.574 17.386-100.844-55.109-268.4 3.883-388.292 79.921-161.954 417.84-161.954 823.35-33.96M-306.566 616.117c173.853 113.601 461.048-181.433 764.447-28.271 100.599 50.767 197.062 88.433 287.87 132.994 72.242 35.511 100.346 4.137 112.33-63.351 17.723-99.723-48.359-267.194 11.73-389.586 80.935-164.539 407.459-178.933 824.539-54.817m-2016.951 385.62c182.124 119.031 462.905-165.746 768.329-16.204 99.164 48.526 195.374 87.743 287.533 136.355 73.508 38.787 101.611 8.361 114.017-59.213 17.976-98.603-41.522-265.987 19.58-390.792 82.031-167.04 396.992-195.914 825.802-75.763M-338.636 581.296c190.395 124.374 464.677-149.973 772.211-4.137 97.814 46.371 193.771 86.967 287.111 139.63 74.689 42.147 102.962 12.67 115.621-54.99 18.313-97.483-34.771-264.781 27.428-392.085 83.044-169.625 386.525-212.807 826.985-96.621M-354.671 563.885c198.665 129.804 466.45-134.114 776.094 7.93 96.378 44.216 192.166 86.277 286.773 142.991 75.955 45.51 104.227 16.98 117.308-50.766 18.651-96.362-27.934-263.488 35.277-393.292 84.142-172.21 376.059-229.787 828.169-117.565M-370.706 546.388c207.02 135.235 468.222-118.168 779.976 20.083 94.944 42.148 190.479 85.588 286.351 146.267 77.137 48.87 105.493 21.289 118.912-46.544 18.904-95.241-21.183-262.28 43.126-394.584C942.813 96.813 1223.26 24.93 1687 133.186M-386.741 528.978c215.207 140.664 469.91-102.137 783.773 32.149 93.594 40.079 188.876 84.812 286.098 149.542 78.403 52.146 106.76 25.513 120.6-42.406 19.158-94.121-14.431-261.074 50.975-395.791C940.872 95.09 1209.92 8.812 1685.23 113.19M-402.86 511.567c223.561 146.008 471.682-85.933 787.74 44.216 92.159 38.011 187.187 84.123 285.676 152.904 79.584 55.507 107.94 29.822 122.203-38.183 19.495-93.001-7.595-259.867 58.823-397.084C938.846 93.452 1196.33-7.22 1683.29 93.193M-418.895 494.156c231.832 151.439 473.285-69.643 791.622 56.283 90.809 35.942 185.499 83.434 285.338 156.265 80.766 58.869 109.207 34.132 123.892-33.959 19.748-91.88-.844-258.575 66.671-398.291C936.905 91.9 1182.92-23.079 1681.52 73.369M-434.93 476.746c240.103 156.868 474.973-53.267 795.504 68.436 89.374 33.959 183.812 82.657 285.001 159.454 81.947 62.23 110.304 38.355 125.495-29.736 19.832-90.76 5.992-257.368 74.52-399.584 89.374-185.14 323.82-314.513 834.07-221.943M-450.965 459.335c248.373 162.298 476.577-36.632 799.386 80.503 87.939 31.891 182.04 82.054 284.663 162.815 83.045 65.678 111.654 42.665 127.183-25.512 20.17-89.639 12.744-256.161 82.369-400.791C933.023 88.625 1155.99-55.056 1677.89 33.463M-467 441.924c325.004 212.29 593.632-145.06 1087.51 258.661 334.962 273.83-208.371-887.6 1055.44-687.205" stroke="url(#mk8wz7jype)" stroke-opacity=".8" stroke-miterlimit="10"/>
    <path d="M30.338 982s414.546-498.187 683.006-282.105c213.181 171.608 360.366 73.177 373.196-88.087 9.79-123.513-190.819-292.965-153.179-363.384C992.268 138.185 1560.16 425.375 1733 632.321M14.303 964.503c8.27 5.43 417.078-483.448 686.888-270.038 125.326 99.12 227.781 107.309 294.959 66.971 46.25-27.84 73.93-81.796 79.5-147.474 10.13-122.392-184.065-291.672-145.327-364.59 59.92-112.824 616.337 159.972 800.817 363.039M-1.732 947.093c16.541 10.86 419.61-468.624 690.77-257.972 124.229 96.535 226.094 106.102 294.622 70.246 47.43-24.823 75.28-77.486 81.1-143.25 10.47-121.271-177.31-290.465-137.476-365.883 61.018-115.41 605.866 143.078 802.006 342.094M-17.767 929.682C7.045 945.886 404.29 475.884 676.885 683.778c123.132 93.948 224.406 104.895 294.285 73.521 48.7-21.893 76.71-73.177 82.79-139.113 11.06-120.065-170.477-289.259-129.63-367.09 62.031-117.996 595.49 126.098 803.18 321.236M-33.802 912.271C-.72 933.905 390.703 473.298 664.732 678.52c122.035 91.363 222.802 103.774 293.947 76.883 49.881-18.876 78.061-68.867 84.391-134.89 11.48-118.944-163.722-288.052-121.778-368.383 63.127-120.581 585.028 109.119 804.368 300.292M-49.837 894.86C-8.4 921.925 377.115 470.798 652.58 673.176c120.853 88.863 221.198 102.568 293.524 80.158 51.143-15.859 79.336-64.557 86.086-130.666 11.9-117.824-156.893-286.759-113.936-369.589 64.14-123.168 574.556 92.225 805.546 279.432M-65.872 877.45c49.708 32.494 429.315-409.237 706.299-209.618 119.756 86.278 219.595 101.447 293.187 83.433 52.409-12.842 80.686-60.334 87.686-126.443 12.32-116.703-150.138-285.552-106.084-370.882 65.237-125.753 564.094 75.246 806.724 258.575M-81.992 860.039c57.98 37.838 431.679-394.326 710.182-197.551 118.574 83.778 218.075 100.327 292.849 86.795 53.759-9.74 82.031-56.024 89.371-122.22 12.75-115.582-143.384-284.345-98.232-372.088 66.249-128.339 553.712 58.351 807.992 237.63M-98.027 842.628c66.25 43.268 433.958-379.415 714.064-185.398 117.393 81.279 216.641 99.293 292.512 90.071 55.109-6.723 83.382-51.715 90.977-118.083 13.164-114.376-136.55-283.139-90.387-373.381 67.263-130.925 543.251 41.372 809.181 216.771M-114.062 825.132C-39.541 873.83 322.174 460.714 603.884 651.8c116.211 78.866 215.122 98.259 292.09 93.346 56.46-3.62 84.732-47.406 92.665-113.859 13.501-113.256-129.799-281.933-82.538-374.588 68.36-133.511 532.779 24.392 810.359 195.827M-130.097 807.721c82.792 54.128 438.515-349.421 721.828-161.265 114.946 76.366 213.772 92.484 291.752 96.707 57.726 3.103 85.999-43.095 94.269-109.635 13.926-112.135-122.963-280.64-74.689-375.881 69.372-136.097 522.317 7.498 811.537 174.968M-146.132 790.31c91.062 59.472 440.709-334.423 725.626-149.197 113.764 73.952 212.252 96.362 291.415 99.982 59.16 2.672 87.348-38.786 95.956-105.412 14.263-111.015-116.211-279.433-66.84-377.088 70.469-138.682 511.855-9.481 812.725 154.11M-162.166 772.9c99.332 64.902 442.903-319.34 729.507-137.045 112.498 71.539 210.733 95.5 291.077 103.257 60.511 5.861 88.699-34.562 97.56-101.188 14.685-109.895-109.375-278.227-58.992-378.381 71.483-141.268 501.474-26.375 813.904 133.166m-1889.091 362.78c107.603 70.332 445.097-304.256 733.389-124.978 111.232 69.126 209.299 94.638 290.74 106.619 61.861 9.136 89.964-30.253 99.248-97.052 15.022-108.773-102.624-277.019-51.143-379.587 72.579-143.854 491.007-43.354 815.087 112.308M-194.236 738.078c115.873 75.762 447.207-289.086 737.271-112.911 109.882 66.712 207.78 93.777 290.318 109.894 63.212 12.326 91.315-25.943 100.852-92.828 15.359-107.567-95.873-275.813-43.295-380.88 73.592-146.439 480.54-60.334 816.27 91.363M-210.271 720.667c124.228 81.107 449.232-273.916 741.153-100.844 108.616 64.385 206.345 93.001 289.981 113.256 64.561 15.601 92.581-21.634 102.455-88.605 15.697-106.446-89.037-274.52-35.446-382.087 74.689-149.025 470.078-77.227 817.448 70.505M-226.306 703.257c132.5 86.536 451.342-258.661 745.036-88.691 107.265 61.971 204.825 92.138 289.642 116.444 65.828 18.876 93.931-17.324 104.143-84.381 16.035-105.326-82.285-273.313-27.597-383.38 75.702-151.611 459.612-94.207 818.632 49.646M-242.426 685.76c140.77 91.966 453.368-243.319 748.918-76.624 106 59.73 203.307 91.363 289.305 119.806 67.178 22.151 95.197-13.015 105.747-80.245 16.372-104.205-75.449-272.106-19.749-384.586 76.715-154.197 449.235-111.101 819.815 28.702M-258.461 668.349c149.041 97.397 455.309-227.976 752.801-64.557 104.649 57.489 201.703 90.673 288.883 123.167 68.444 25.513 96.463-8.791 107.434-76.021 16.71-103.085-68.697-270.899-11.9-385.793 77.812-156.782 438.773-128.08 820.993 7.844M-274.496 650.938c157.312 102.741 457.251-212.548 756.683-52.49 103.299 55.249 200.184 89.898 288.545 126.443 69.71 28.788 97.814-4.482 109.038-71.798 17.048-101.964-61.946-269.607-4.051-387.086 78.825-159.368 428.301-145.06 822.171-13.101M-290.531 633.528c165.583 108.17 459.192-197.034 760.565-40.338 101.949 53.008 198.581 89.208 288.208 129.718 70.976 32.15 99.079-.172 110.725-67.574 17.386-100.844-55.109-268.4 3.883-388.292 79.921-161.954 417.84-161.954 823.35-33.96M-306.566 616.117c173.853 113.601 461.048-181.433 764.447-28.271 100.599 50.767 197.062 88.433 287.87 132.994 72.242 35.511 100.346 4.137 112.33-63.351 17.723-99.723-48.359-267.194 11.73-389.586 80.935-164.539 407.459-178.933 824.539-54.817m-2016.951 385.62c182.124 119.031 462.905-165.746 768.329-16.204 99.164 48.526 195.374 87.743 287.533 136.355 73.508 38.787 101.611 8.361 114.017-59.213 17.976-98.603-41.522-265.987 19.58-390.792 82.031-167.04 396.992-195.914 825.802-75.763M-338.636 581.296c190.395 124.374 464.677-149.973 772.211-4.137 97.814 46.371 193.771 86.967 287.111 139.63 74.689 42.147 102.962 12.67 115.621-54.99 18.313-97.483-34.771-264.781 27.428-392.085 83.044-169.625 386.525-212.807 826.985-96.621M-354.671 563.885c198.665 129.804 466.45-134.114 776.094 7.93 96.378 44.216 192.166 86.277 286.773 142.991 75.955 45.51 104.227 16.98 117.308-50.766 18.651-96.362-27.934-263.488 35.277-393.292 84.142-172.21 376.059-229.787 828.169-117.565M-370.706 546.388c207.02 135.235 468.222-118.168 779.976 20.083 94.944 42.148 190.479 85.588 286.351 146.267 77.137 48.87 105.493 21.289 118.912-46.544 18.904-95.241-21.183-262.28 43.126-394.584C942.813 96.813 1223.26 24.93 1687 133.186M-386.741 528.978c215.207 140.664 469.91-102.137 783.773 32.149 93.594 40.079 188.876 84.812 286.098 149.542 78.403 52.146 106.76 25.513 120.6-42.406 19.158-94.121-14.431-261.074 50.975-395.791C940.872 95.09 1209.92 8.812 1685.23 113.19M-402.86 511.567c223.561 146.008 471.682-85.933 787.74 44.216 92.159 38.011 187.187 84.123 285.676 152.904 79.584 55.507 107.94 29.822 122.203-38.183 19.495-93.001-7.595-259.867 58.823-397.084C938.846 93.452 1196.33-7.22 1683.29 93.193M-418.895 494.156c231.832 151.439 473.285-69.643 791.622 56.283 90.809 35.942 185.499 83.434 285.338 156.265 80.766 58.869 109.207 34.132 123.892-33.959 19.748-91.88-.844-258.575 66.671-398.291C936.905 91.9 1182.92-23.079 1681.52 73.369M-434.93 476.746c240.103 156.868 474.973-53.267 795.504 68.436 89.374 33.959 183.812 82.657 285.001 159.454 81.947 62.23 110.304 38.355 125.495-29.736 19.832-90.76 5.992-257.368 74.52-399.584 89.374-185.14 323.82-314.513 834.07-221.943M-450.965 459.335c248.373 162.298 476.577-36.632 799.386 80.503 87.939 31.891 182.04 82.054 284.663 162.815 83.045 65.678 111.654 42.665 127.183-25.512 20.17-89.639 12.744-256.161 82.369-400.791C933.023 88.625 1155.99-55.056 1677.89 33.463M-467 441.924c325.004 212.29 593.632-145.06 1087.51 258.661 334.962 273.83-208.371-887.6 1055.44-687.205" stroke="url(#8w04k4savf)" stroke-opacity=".8" stroke-miterlimit="10"/>
    <defs>
        <radialGradient id="ok2fx8gt1b" cx="0" cy="0" r="1" gradientUnits="userSpaceOnUse" gradientTransform="rotate(107.586 20.174 468.798) scale(93.853 208.96)">
            <stop stop-color="#FFF5FE"/>
            <stop offset="1" stop-color="#FFF5FE" stop-opacity="0"/>
        </radialGradient>
        <radialGradient id="a4meu3dz9c" cx="0" cy="0" r="1" gradientUnits="userSpaceOnUse" gradientTransform="rotate(-80.731 809.257 -87.045) scale(28.2954 95.4835)">
            <stop stop-color="#FFF5FE"/>
            <stop offset="1" stop-color="#fff" stop-opacity="0"/>
        </radialGradient>
        <radialGradient id="m82x71jwsd" cx="0" cy="0" r="1" gradientUnits="userSpaceOnUse" gradientTransform="matrix(111.99969 76.99972 -95.698 139.1972 918 222)">
            <stop stop-color="#FFD6FB"/>
            <stop offset="1" stop-color="#fff" stop-opacity="0"/>
        </radialGradient>
        <linearGradient id="s84dds1dda" x1="1217.5" y1="639.5" x2="627.049" y2="-190.08" gradientUnits="userSpaceOnUse">
            <stop stop-color="#FF00E3"/>
            <stop offset=".851" stop-color="#00C2AE"/>
        </linearGradient>
        <linearGradient id="mk8wz7jype" x1="-279.5" y1="1107.5" x2="213.168" y2="300.287" gradientUnits="userSpaceOnUse">
            <stop offset=".227" stop-color="#010A5A" stop-opacity=".96"/>
            <stop offset=".787" stop-color="#010A5B" stop-opacity="0"/>
        </linearGradient>
        <linearGradient id="8w04k4savf" x1="1776" y1="224.5" x2="1144.14" y2="451.672" gradientUnits="userSpaceOnUse">
            <stop stop-color="#0C2067"/>
            <stop offset=".836" stop-color="#0C2069" stop-opacity="0"/>
        </linearGradient>
    </defs>
</svg>
