<svg width="1440" height="900" viewBox="0 0 1440 900" fill="none" xmlns="http://www.w3.org/2000/svg">
<g clip-path="url(#clip0_1252_172671)">
<g opacity="0.32" filter="url(#filter0_f_1252_172671)">
<ellipse cx="1139.56" cy="97.1019" rx="422.505" ry="129.15" transform="rotate(-15 1139.56 97.1019)" fill="url(#paint0_radial_1252_172671)"/>
</g>
<g opacity="0.64" filter="url(#filter1_f_1252_172671)">
<ellipse cx="785.231" cy="735.642" rx="247.733" ry="57.4854" transform="rotate(19.4141 785.231 735.642)" fill="url(#paint1_radial_1252_172671)"/>
</g>
<g opacity="0.64" filter="url(#filter2_f_1252_172671)">
<ellipse cx="484.065" cy="602.665" rx="314.348" ry="37.9883" transform="rotate(21.1122 484.065 602.665)" fill="url(#paint2_radial_1252_172671)"/>
</g>
<g filter="url(#filter3_f_1252_172671)">
<path d="M814 324.32C842.117 334.479 921.131 321.215 957.124 313.313C946.114 295.958 926.467 259.045 935.952 250.24C947.808 239.234 969.404 231.191 998.198 233.73C1002.94 218.83 985.495 136.368 976.179 97C945.973 120.282 880.904 175.736 862.273 211.295C843.641 246.853 822.328 301.461 814 324.32Z" fill="url(#paint3_radial_1252_172671)"/>
</g>
<ellipse opacity="0.72" cx="1404.92" cy="891.266" rx="968.703" ry="415.241" transform="rotate(-15 1404.92 891.266)" fill="url(#paint4_radial_1252_172671)"/>
<g opacity="0.04" filter="url(#filter4_f_1252_172671)">
<path d="M30.3377 982C30.3377 982 444.884 483.813 713.344 699.895C926.525 871.503 1073.71 773.072 1086.54 611.808C1096.33 488.295 895.721 318.843 933.361 248.424C992.268 138.185 1560.16 425.375 1733 632.321M14.3028 964.503C22.5734 969.933 431.381 481.055 701.191 694.465C826.517 793.585 928.972 801.774 996.15 761.436C1042.4 733.596 1070.08 679.64 1075.65 613.962C1085.78 491.57 891.585 322.29 930.323 249.372C990.243 136.548 1546.66 409.344 1731.14 612.411M-1.7322 947.093C14.8092 957.953 417.878 478.469 689.038 689.121C813.267 785.656 915.132 795.223 983.66 759.367C1031.09 734.544 1058.94 681.881 1064.76 616.117C1075.23 494.846 887.45 325.652 927.284 250.234C988.302 134.824 1533.15 393.312 1729.29 592.328M-17.7672 929.682C7.0448 945.886 404.29 475.884 676.885 683.778C800.017 777.726 901.291 788.673 971.17 757.299C1019.87 735.406 1047.88 684.122 1053.96 618.186C1065.02 498.121 883.483 328.927 924.33 251.096C986.361 133.1 1519.82 377.194 1727.51 572.332M-33.8022 912.271C-0.719517 933.905 390.703 473.298 664.732 678.52C786.767 769.883 887.534 782.294 958.679 755.403C1008.56 736.527 1036.74 686.536 1043.07 620.513C1054.55 501.569 879.348 332.461 921.292 252.13C984.419 131.549 1506.32 361.249 1725.66 552.422M-49.8372 894.86C-8.39941 921.925 377.115 470.798 652.58 673.176C773.433 762.039 873.778 775.744 946.104 753.334C997.247 737.475 1025.44 688.777 1032.19 622.668C1044.09 504.844 875.297 335.909 918.254 253.079C982.394 129.911 1492.81 345.304 1723.8 532.511M-65.8722 877.45C-16.1637 909.944 363.443 468.213 640.427 667.832C760.183 754.11 860.022 769.279 933.614 751.265C986.023 738.423 1014.3 690.931 1021.3 624.822C1033.62 508.119 871.162 339.27 915.216 253.94C980.453 128.187 1479.31 329.186 1721.94 512.515M-81.9916 860.039C-24.0124 897.877 349.687 465.713 628.19 662.488C746.764 746.266 846.265 762.815 921.039 749.283C974.798 739.543 1003.07 693.259 1010.41 627.063C1023.16 511.481 867.026 342.718 912.178 254.975C978.427 126.636 1465.89 313.326 1720.17 492.605M-98.0266 842.628C-31.7767 885.896 335.931 463.213 616.037 657.23C733.43 738.509 832.678 756.523 908.549 747.301C963.658 740.578 991.931 695.586 999.526 629.218C1012.69 514.842 862.976 346.079 909.139 255.837C976.402 124.912 1452.39 297.209 1718.32 472.608M-114.062 825.132C-39.541 873.83 322.174 460.714 603.884 651.8C720.095 730.666 819.006 750.059 895.974 745.146C952.434 741.526 980.706 697.74 988.639 631.287C1002.14 518.031 858.84 349.354 906.101 256.699C974.461 123.188 1438.88 281.091 1716.46 452.526M-130.097 807.721C-47.3053 861.849 308.418 458.3 591.731 646.456C706.677 722.822 805.503 738.94 883.483 743.163C941.209 746.266 969.482 700.068 977.752 633.528C991.678 521.393 854.789 352.888 903.063 257.647C972.435 121.55 1425.38 265.145 1714.6 432.615M-146.132 790.31C-55.0697 849.782 294.577 455.887 579.494 641.113C693.258 715.065 791.746 737.475 870.909 741.095C930.069 743.767 958.257 702.309 966.865 635.683C981.128 524.668 850.654 356.25 900.025 258.595C970.494 119.913 1411.88 249.114 1712.75 412.705M-162.166 772.9C-62.834 837.802 280.737 453.56 567.341 635.855C679.839 707.394 778.074 731.355 858.418 739.112C918.929 744.973 947.117 704.55 955.978 637.924C970.663 528.029 846.603 359.697 896.986 259.543C968.469 118.275 1398.46 233.168 1710.89 392.709M-178.201 755.489C-70.5983 825.821 266.896 451.233 555.188 630.511C666.42 699.637 764.487 725.149 845.928 737.13C907.789 746.266 935.892 706.877 945.176 640.078C960.198 531.305 842.552 363.059 894.033 260.491C966.612 116.637 1385.04 217.137 1709.12 372.799M-194.236 738.078C-78.3626 813.84 252.971 448.992 543.035 625.167C652.917 691.879 750.815 718.944 833.353 735.061C896.565 747.387 924.668 709.118 934.205 642.233C949.564 534.666 838.332 366.42 890.91 261.353C964.502 114.914 1371.45 201.019 1707.18 352.716M-210.271 720.667C-86.0425 801.774 238.961 446.751 530.882 619.823C639.498 684.208 737.227 712.824 820.863 733.079C885.424 748.68 913.444 711.445 923.318 644.474C939.015 538.028 834.281 369.954 887.872 262.387C962.561 113.362 1357.95 185.16 1705.32 332.892M-226.306 703.257C-93.8068 789.793 225.036 444.596 518.73 614.566C625.995 676.537 723.555 706.704 808.372 731.01C874.2 749.886 902.303 713.686 912.515 646.629C928.55 541.303 830.23 373.316 884.918 263.249C960.62 111.638 1344.53 169.042 1703.55 312.895M-242.426 685.76C-101.656 777.726 210.942 442.441 506.492 609.136C612.492 668.866 709.799 700.499 795.797 728.942C862.975 751.093 890.994 715.927 901.544 648.697C917.916 544.492 826.095 376.591 881.795 264.111C958.51 109.914 1331.03 153.01 1701.61 292.813M-258.461 668.349C-109.42 765.746 196.848 440.373 494.34 603.792C598.989 661.281 696.043 694.465 783.223 726.959C851.667 752.472 879.686 718.168 890.657 650.938C907.367 547.853 821.96 380.039 878.757 265.145C956.569 108.363 1317.53 137.065 1699.75 272.989M-274.496 650.938C-117.184 753.679 182.755 438.39 482.187 598.448C585.486 653.697 682.371 688.346 770.732 724.891C840.442 753.679 868.546 720.409 879.77 653.093C896.818 551.129 817.824 383.486 875.719 266.007C954.544 106.639 1304.02 120.947 1697.89 252.906M-290.531 633.528C-124.948 741.698 168.661 436.494 470.034 593.19C571.983 646.198 668.615 682.398 758.242 722.908C829.218 755.058 857.321 722.736 868.967 655.334C886.353 554.49 813.858 386.934 872.85 267.042C952.771 105.088 1290.69 105.088 1696.2 233.082M-306.566 616.117C-132.713 729.718 154.482 434.684 457.881 587.846C558.48 638.613 654.943 676.279 745.751 720.84C817.993 756.351 846.097 724.977 858.081 657.489C875.804 557.766 809.722 390.295 869.811 267.903C950.746 103.364 1277.27 88.9699 1694.35 213.086M-322.601 598.706C-140.477 717.737 140.304 432.96 445.728 582.502C544.892 631.028 641.102 670.245 733.261 718.857C806.769 757.644 834.872 727.218 847.278 659.644C865.254 561.041 805.756 393.657 866.858 268.852C948.889 101.812 1263.85 72.9384 1692.66 193.089M-338.636 581.296C-148.241 705.67 126.041 431.323 433.575 577.159C531.389 623.53 627.346 664.126 720.686 716.789C795.375 758.936 823.648 729.459 836.307 661.799C854.62 564.316 801.536 397.018 863.735 269.714C946.779 100.089 1250.26 56.9067 1690.72 173.093M-354.671 563.885C-156.006 693.689 111.779 429.771 421.423 571.815C517.801 616.031 613.589 658.092 708.196 714.806C784.151 760.316 812.423 731.786 825.504 664.04C844.155 567.678 797.57 400.552 860.781 270.748C944.923 98.5372 1236.84 40.9613 1688.95 153.183M-370.706 546.388C-163.686 681.623 97.5159 428.22 409.27 566.471C504.214 608.619 599.749 652.059 695.621 712.738C772.758 761.608 801.114 734.027 814.533 666.194C833.437 570.953 793.35 403.914 857.659 271.61C942.813 96.8134 1223.26 24.9297 1687 133.186M-386.741 528.978C-171.534 669.642 83.1688 426.841 397.032 561.127C490.626 601.206 585.908 645.939 683.13 710.669C761.533 762.815 789.89 736.182 803.73 668.263C822.888 574.142 789.299 407.189 854.705 272.472C940.872 95.0896 1209.92 8.81187 1685.23 113.19M-402.86 511.567C-179.299 657.575 68.8217 425.634 384.88 555.783C477.039 593.794 572.067 639.906 670.556 708.687C750.14 764.194 778.496 738.509 792.759 670.504C812.254 577.503 785.164 410.637 851.582 273.42C938.846 93.4519 1196.33 -7.21974 1683.29 93.1933M-418.895 494.156C-187.063 645.595 54.3902 424.513 372.727 550.439C463.536 586.381 558.226 633.873 658.065 706.704C738.831 765.573 767.272 740.836 781.957 672.745C801.705 580.865 781.113 414.17 848.628 274.454C936.905 91.9005 1182.92 -23.079 1681.52 73.3693M-434.93 476.746C-194.827 633.614 40.0431 423.479 360.574 545.182C449.948 579.141 544.386 627.839 645.575 704.636C727.522 766.866 755.879 742.991 771.07 674.9C790.902 584.14 777.062 417.532 845.59 275.316C934.964 90.1766 1169.41 -39.1968 1679.66 53.3729M-450.965 459.335C-202.592 621.633 25.6116 422.703 348.421 539.838C436.36 571.729 530.461 621.892 633.084 702.653C716.129 768.331 744.738 745.318 760.267 677.141C780.437 587.502 773.011 420.98 842.636 276.35C933.023 88.6252 1155.99 -55.056 1677.89 33.4626M-467 441.924C-141.996 654.214 126.632 296.864 620.51 700.585C955.472 974.415 412.139 -187.015 1675.95 13.38" stroke="url(#paint5_linear_1252_172671)" stroke-width="16" stroke-miterlimit="10"/>
</g>
<path d="M30.3377 982C30.3377 982 444.884 483.813 713.344 699.895C926.525 871.503 1073.71 773.072 1086.54 611.808C1096.33 488.295 895.721 318.843 933.361 248.424C992.268 138.185 1560.16 425.375 1733 632.321M14.3028 964.503C22.5734 969.933 431.381 481.055 701.191 694.465C826.517 793.585 928.972 801.774 996.15 761.436C1042.4 733.596 1070.08 679.64 1075.65 613.962C1085.78 491.57 891.585 322.29 930.323 249.372C990.243 136.548 1546.66 409.344 1731.14 612.411M-1.7322 947.093C14.8092 957.953 417.878 478.469 689.038 689.121C813.267 785.656 915.132 795.223 983.66 759.367C1031.09 734.544 1058.94 681.881 1064.76 616.117C1075.23 494.846 887.45 325.652 927.284 250.234C988.302 134.824 1533.15 393.312 1729.29 592.328M-17.7672 929.682C7.0448 945.886 404.29 475.884 676.885 683.778C800.017 777.726 901.291 788.673 971.17 757.299C1019.87 735.406 1047.88 684.122 1053.96 618.186C1065.02 498.121 883.483 328.927 924.33 251.096C986.361 133.1 1519.82 377.194 1727.51 572.332M-33.8022 912.271C-0.719517 933.905 390.703 473.298 664.732 678.52C786.767 769.883 887.534 782.294 958.679 755.403C1008.56 736.527 1036.74 686.536 1043.07 620.513C1054.55 501.569 879.348 332.461 921.292 252.13C984.419 131.549 1506.32 361.249 1725.66 552.422M-49.8372 894.86C-8.39941 921.925 377.115 470.798 652.58 673.176C773.433 762.039 873.778 775.744 946.104 753.334C997.247 737.475 1025.44 688.777 1032.19 622.668C1044.09 504.844 875.297 335.909 918.254 253.079C982.394 129.911 1492.81 345.304 1723.8 532.511M-65.8722 877.45C-16.1637 909.944 363.443 468.213 640.427 667.832C760.183 754.11 860.022 769.279 933.614 751.265C986.023 738.423 1014.3 690.931 1021.3 624.822C1033.62 508.119 871.162 339.27 915.216 253.94C980.453 128.187 1479.31 329.186 1721.94 512.515M-81.9916 860.039C-24.0124 897.877 349.687 465.713 628.19 662.488C746.764 746.266 846.265 762.815 921.039 749.283C974.798 739.543 1003.07 693.259 1010.41 627.063C1023.16 511.481 867.026 342.718 912.178 254.975C978.427 126.636 1465.89 313.326 1720.17 492.605M-98.0266 842.628C-31.7767 885.896 335.931 463.213 616.037 657.23C733.43 738.509 832.678 756.523 908.549 747.301C963.658 740.578 991.931 695.586 999.526 629.218C1012.69 514.842 862.976 346.079 909.139 255.837C976.402 124.912 1452.39 297.209 1718.32 472.608M-114.062 825.132C-39.541 873.83 322.174 460.714 603.884 651.8C720.095 730.666 819.006 750.059 895.974 745.146C952.434 741.526 980.706 697.74 988.639 631.287C1002.14 518.031 858.84 349.354 906.101 256.699C974.461 123.188 1438.88 281.091 1716.46 452.526M-130.097 807.721C-47.3053 861.849 308.418 458.3 591.731 646.456C706.677 722.822 805.503 738.94 883.483 743.163C941.209 746.266 969.482 700.068 977.752 633.528C991.678 521.393 854.789 352.888 903.063 257.647C972.435 121.55 1425.38 265.145 1714.6 432.615M-146.132 790.31C-55.0697 849.782 294.577 455.887 579.494 641.113C693.258 715.065 791.746 737.475 870.909 741.095C930.069 743.767 958.257 702.309 966.865 635.683C981.128 524.668 850.654 356.25 900.025 258.595C970.494 119.913 1411.88 249.114 1712.75 412.705M-162.166 772.9C-62.834 837.802 280.737 453.56 567.341 635.855C679.839 707.394 778.074 731.355 858.418 739.112C918.929 744.973 947.117 704.55 955.978 637.924C970.663 528.029 846.603 359.697 896.986 259.543C968.469 118.275 1398.46 233.168 1710.89 392.709M-178.201 755.489C-70.5983 825.821 266.896 451.233 555.188 630.511C666.42 699.637 764.487 725.149 845.928 737.13C907.789 746.266 935.892 706.877 945.176 640.078C960.198 531.305 842.552 363.059 894.033 260.491C966.612 116.637 1385.04 217.137 1709.12 372.799M-194.236 738.078C-78.3626 813.84 252.971 448.992 543.035 625.167C652.917 691.879 750.815 718.944 833.353 735.061C896.565 747.387 924.668 709.118 934.205 642.233C949.564 534.666 838.332 366.42 890.91 261.353C964.502 114.914 1371.45 201.019 1707.18 352.716M-210.271 720.667C-86.0425 801.774 238.961 446.751 530.882 619.823C639.498 684.208 737.227 712.824 820.863 733.079C885.424 748.68 913.444 711.445 923.318 644.474C939.015 538.028 834.281 369.954 887.872 262.387C962.561 113.362 1357.95 185.16 1705.32 332.892M-226.306 703.257C-93.8068 789.793 225.036 444.596 518.73 614.566C625.995 676.537 723.555 706.704 808.372 731.01C874.2 749.886 902.303 713.686 912.515 646.629C928.55 541.303 830.23 373.316 884.918 263.249C960.62 111.638 1344.53 169.042 1703.55 312.895M-242.426 685.76C-101.656 777.726 210.942 442.441 506.492 609.136C612.492 668.866 709.799 700.499 795.797 728.942C862.975 751.093 890.994 715.927 901.544 648.697C917.916 544.492 826.095 376.591 881.795 264.111C958.51 109.914 1331.03 153.01 1701.61 292.813M-258.461 668.349C-109.42 765.746 196.848 440.373 494.34 603.792C598.989 661.281 696.043 694.465 783.223 726.959C851.667 752.472 879.686 718.168 890.657 650.938C907.367 547.853 821.96 380.039 878.757 265.145C956.569 108.363 1317.53 137.065 1699.75 272.989M-274.496 650.938C-117.184 753.679 182.755 438.39 482.187 598.448C585.486 653.697 682.371 688.346 770.732 724.891C840.442 753.679 868.546 720.409 879.77 653.093C896.818 551.129 817.824 383.486 875.719 266.007C954.544 106.639 1304.02 120.947 1697.89 252.906M-290.531 633.528C-124.948 741.698 168.661 436.494 470.034 593.19C571.983 646.198 668.615 682.398 758.242 722.908C829.218 755.058 857.321 722.736 868.967 655.334C886.353 554.49 813.858 386.934 872.85 267.042C952.771 105.088 1290.69 105.088 1696.2 233.082M-306.566 616.117C-132.713 729.718 154.482 434.684 457.881 587.846C558.48 638.613 654.943 676.279 745.751 720.84C817.993 756.351 846.097 724.977 858.081 657.489C875.804 557.766 809.722 390.295 869.811 267.903C950.746 103.364 1277.27 88.9699 1694.35 213.086M-322.601 598.706C-140.477 717.737 140.304 432.96 445.728 582.502C544.892 631.028 641.102 670.245 733.261 718.857C806.769 757.644 834.872 727.218 847.278 659.644C865.254 561.041 805.756 393.657 866.858 268.852C948.889 101.812 1263.85 72.9384 1692.66 193.089M-338.636 581.296C-148.241 705.67 126.041 431.323 433.575 577.159C531.389 623.53 627.346 664.126 720.686 716.789C795.375 758.936 823.648 729.459 836.307 661.799C854.62 564.316 801.536 397.018 863.735 269.714C946.779 100.089 1250.26 56.9067 1690.72 173.093M-354.671 563.885C-156.006 693.689 111.779 429.771 421.423 571.815C517.801 616.031 613.589 658.092 708.196 714.806C784.151 760.316 812.423 731.786 825.504 664.04C844.155 567.678 797.57 400.552 860.781 270.748C944.923 98.5372 1236.84 40.9613 1688.95 153.183M-370.706 546.388C-163.686 681.623 97.5159 428.22 409.27 566.471C504.214 608.619 599.749 652.059 695.621 712.738C772.758 761.608 801.114 734.027 814.533 666.194C833.437 570.953 793.35 403.914 857.659 271.61C942.813 96.8134 1223.26 24.9297 1687 133.186M-386.741 528.978C-171.534 669.642 83.1688 426.841 397.032 561.127C490.626 601.206 585.908 645.939 683.13 710.669C761.533 762.815 789.89 736.182 803.73 668.263C822.888 574.142 789.299 407.189 854.705 272.472C940.872 95.0896 1209.92 8.81187 1685.23 113.19M-402.86 511.567C-179.299 657.575 68.8217 425.634 384.88 555.783C477.039 593.794 572.067 639.906 670.556 708.687C750.14 764.194 778.496 738.509 792.759 670.504C812.254 577.503 785.164 410.637 851.582 273.42C938.846 93.4519 1196.33 -7.21974 1683.29 93.1933M-418.895 494.156C-187.063 645.595 54.3902 424.513 372.727 550.439C463.536 586.381 558.226 633.873 658.065 706.704C738.831 765.573 767.272 740.836 781.957 672.745C801.705 580.865 781.113 414.17 848.628 274.454C936.905 91.9005 1182.92 -23.079 1681.52 73.3693M-434.93 476.746C-194.827 633.614 40.0431 423.479 360.574 545.182C449.948 579.141 544.386 627.839 645.575 704.636C727.522 766.866 755.879 742.991 771.07 674.9C790.902 584.14 777.062 417.532 845.59 275.316C934.964 90.1766 1169.41 -39.1968 1679.66 53.3729M-450.965 459.335C-202.592 621.633 25.6116 422.703 348.421 539.838C436.36 571.729 530.461 621.892 633.084 702.653C716.129 768.331 744.738 745.318 760.267 677.141C780.437 587.502 773.011 420.98 842.636 276.35C933.023 88.6252 1155.99 -55.056 1677.89 33.4626M-467 441.924C-141.996 654.214 126.632 296.864 620.51 700.585C955.472 974.415 412.139 -187.015 1675.95 13.38" stroke="url(#paint6_linear_1252_172671)" stroke-miterlimit="10"/>
<path d="M30.3377 982C30.3377 982 444.884 483.813 713.344 699.895C926.525 871.503 1073.71 773.072 1086.54 611.808C1096.33 488.295 895.721 318.843 933.361 248.424C992.268 138.185 1560.16 425.375 1733 632.321M14.3028 964.503C22.5734 969.933 431.381 481.055 701.191 694.465C826.517 793.585 928.972 801.774 996.15 761.436C1042.4 733.596 1070.08 679.64 1075.65 613.962C1085.78 491.57 891.585 322.29 930.323 249.372C990.243 136.548 1546.66 409.344 1731.14 612.411M-1.7322 947.093C14.8092 957.953 417.878 478.469 689.038 689.121C813.267 785.656 915.132 795.223 983.66 759.367C1031.09 734.544 1058.94 681.881 1064.76 616.117C1075.23 494.846 887.45 325.652 927.284 250.234C988.302 134.824 1533.15 393.312 1729.29 592.328M-17.7672 929.682C7.0448 945.886 404.29 475.884 676.885 683.778C800.017 777.726 901.291 788.673 971.17 757.299C1019.87 735.406 1047.88 684.122 1053.96 618.186C1065.02 498.121 883.483 328.927 924.33 251.096C986.361 133.1 1519.82 377.194 1727.51 572.332M-33.8022 912.271C-0.719517 933.905 390.703 473.298 664.732 678.52C786.767 769.883 887.534 782.294 958.679 755.403C1008.56 736.527 1036.74 686.536 1043.07 620.513C1054.55 501.569 879.348 332.461 921.292 252.13C984.419 131.549 1506.32 361.249 1725.66 552.422M-49.8372 894.86C-8.39941 921.925 377.115 470.798 652.58 673.176C773.433 762.039 873.778 775.744 946.104 753.334C997.247 737.475 1025.44 688.777 1032.19 622.668C1044.09 504.844 875.297 335.909 918.254 253.079C982.394 129.911 1492.81 345.304 1723.8 532.511M-65.8722 877.45C-16.1637 909.944 363.443 468.213 640.427 667.832C760.183 754.11 860.022 769.279 933.614 751.265C986.023 738.423 1014.3 690.931 1021.3 624.822C1033.62 508.119 871.162 339.27 915.216 253.94C980.453 128.187 1479.31 329.186 1721.94 512.515M-81.9916 860.039C-24.0124 897.877 349.687 465.713 628.19 662.488C746.764 746.266 846.265 762.815 921.039 749.283C974.798 739.543 1003.07 693.259 1010.41 627.063C1023.16 511.481 867.026 342.718 912.178 254.975C978.427 126.636 1465.89 313.326 1720.17 492.605M-98.0266 842.628C-31.7767 885.896 335.931 463.213 616.037 657.23C733.43 738.509 832.678 756.523 908.549 747.301C963.658 740.578 991.931 695.586 999.526 629.218C1012.69 514.842 862.976 346.079 909.139 255.837C976.402 124.912 1452.39 297.209 1718.32 472.608M-114.062 825.132C-39.541 873.83 322.174 460.714 603.884 651.8C720.095 730.666 819.006 750.059 895.974 745.146C952.434 741.526 980.706 697.74 988.639 631.287C1002.14 518.031 858.84 349.354 906.101 256.699C974.461 123.188 1438.88 281.091 1716.46 452.526M-130.097 807.721C-47.3053 861.849 308.418 458.3 591.731 646.456C706.677 722.822 805.503 738.94 883.483 743.163C941.209 746.266 969.482 700.068 977.752 633.528C991.678 521.393 854.789 352.888 903.063 257.647C972.435 121.55 1425.38 265.145 1714.6 432.615M-146.132 790.31C-55.0697 849.782 294.577 455.887 579.494 641.113C693.258 715.065 791.746 737.475 870.909 741.095C930.069 743.767 958.257 702.309 966.865 635.683C981.128 524.668 850.654 356.25 900.025 258.595C970.494 119.913 1411.88 249.114 1712.75 412.705M-162.166 772.9C-62.834 837.802 280.737 453.56 567.341 635.855C679.839 707.394 778.074 731.355 858.418 739.112C918.929 744.973 947.117 704.55 955.978 637.924C970.663 528.029 846.603 359.697 896.986 259.543C968.469 118.275 1398.46 233.168 1710.89 392.709M-178.201 755.489C-70.5983 825.821 266.896 451.233 555.188 630.511C666.42 699.637 764.487 725.149 845.928 737.13C907.789 746.266 935.892 706.877 945.176 640.078C960.198 531.305 842.552 363.059 894.033 260.491C966.612 116.637 1385.04 217.137 1709.12 372.799M-194.236 738.078C-78.3626 813.84 252.971 448.992 543.035 625.167C652.917 691.879 750.815 718.944 833.353 735.061C896.565 747.387 924.668 709.118 934.205 642.233C949.564 534.666 838.332 366.42 890.91 261.353C964.502 114.914 1371.45 201.019 1707.18 352.716M-210.271 720.667C-86.0425 801.774 238.961 446.751 530.882 619.823C639.498 684.208 737.227 712.824 820.863 733.079C885.424 748.68 913.444 711.445 923.318 644.474C939.015 538.028 834.281 369.954 887.872 262.387C962.561 113.362 1357.95 185.16 1705.32 332.892M-226.306 703.257C-93.8068 789.793 225.036 444.596 518.73 614.566C625.995 676.537 723.555 706.704 808.372 731.01C874.2 749.886 902.303 713.686 912.515 646.629C928.55 541.303 830.23 373.316 884.918 263.249C960.62 111.638 1344.53 169.042 1703.55 312.895M-242.426 685.76C-101.656 777.726 210.942 442.441 506.492 609.136C612.492 668.866 709.799 700.499 795.797 728.942C862.975 751.093 890.994 715.927 901.544 648.697C917.916 544.492 826.095 376.591 881.795 264.111C958.51 109.914 1331.03 153.01 1701.61 292.813M-258.461 668.349C-109.42 765.746 196.848 440.373 494.34 603.792C598.989 661.281 696.043 694.465 783.223 726.959C851.667 752.472 879.686 718.168 890.657 650.938C907.367 547.853 821.96 380.039 878.757 265.145C956.569 108.363 1317.53 137.065 1699.75 272.989M-274.496 650.938C-117.184 753.679 182.755 438.39 482.187 598.448C585.486 653.697 682.371 688.346 770.732 724.891C840.442 753.679 868.546 720.409 879.77 653.093C896.818 551.129 817.824 383.486 875.719 266.007C954.544 106.639 1304.02 120.947 1697.89 252.906M-290.531 633.528C-124.948 741.698 168.661 436.494 470.034 593.19C571.983 646.198 668.615 682.398 758.242 722.908C829.218 755.058 857.321 722.736 868.967 655.334C886.353 554.49 813.858 386.934 872.85 267.042C952.771 105.088 1290.69 105.088 1696.2 233.082M-306.566 616.117C-132.713 729.718 154.482 434.684 457.881 587.846C558.48 638.613 654.943 676.279 745.751 720.84C817.993 756.351 846.097 724.977 858.081 657.489C875.804 557.766 809.722 390.295 869.811 267.903C950.746 103.364 1277.27 88.9699 1694.35 213.086M-322.601 598.706C-140.477 717.737 140.304 432.96 445.728 582.502C544.892 631.028 641.102 670.245 733.261 718.857C806.769 757.644 834.872 727.218 847.278 659.644C865.254 561.041 805.756 393.657 866.858 268.852C948.889 101.812 1263.85 72.9384 1692.66 193.089M-338.636 581.296C-148.241 705.67 126.041 431.323 433.575 577.159C531.389 623.53 627.346 664.126 720.686 716.789C795.375 758.936 823.648 729.459 836.307 661.799C854.62 564.316 801.536 397.018 863.735 269.714C946.779 100.089 1250.26 56.9067 1690.72 173.093M-354.671 563.885C-156.006 693.689 111.779 429.771 421.423 571.815C517.801 616.031 613.589 658.092 708.196 714.806C784.151 760.316 812.423 731.786 825.504 664.04C844.155 567.678 797.57 400.552 860.781 270.748C944.923 98.5372 1236.84 40.9613 1688.95 153.183M-370.706 546.388C-163.686 681.623 97.5159 428.22 409.27 566.471C504.214 608.619 599.749 652.059 695.621 712.738C772.758 761.608 801.114 734.027 814.533 666.194C833.437 570.953 793.35 403.914 857.659 271.61C942.813 96.8134 1223.26 24.9297 1687 133.186M-386.741 528.978C-171.534 669.642 83.1688 426.841 397.032 561.127C490.626 601.206 585.908 645.939 683.13 710.669C761.533 762.815 789.89 736.182 803.73 668.263C822.888 574.142 789.299 407.189 854.705 272.472C940.872 95.0896 1209.92 8.81187 1685.23 113.19M-402.86 511.567C-179.299 657.575 68.8217 425.634 384.88 555.783C477.039 593.794 572.067 639.906 670.556 708.687C750.14 764.194 778.496 738.509 792.759 670.504C812.254 577.503 785.164 410.637 851.582 273.42C938.846 93.4519 1196.33 -7.21974 1683.29 93.1933M-418.895 494.156C-187.063 645.595 54.3902 424.513 372.727 550.439C463.536 586.381 558.226 633.873 658.065 706.704C738.831 765.573 767.272 740.836 781.957 672.745C801.705 580.865 781.113 414.17 848.628 274.454C936.905 91.9005 1182.92 -23.079 1681.52 73.3693M-434.93 476.746C-194.827 633.614 40.0431 423.479 360.574 545.182C449.948 579.141 544.386 627.839 645.575 704.636C727.522 766.866 755.879 742.991 771.07 674.9C790.902 584.14 777.062 417.532 845.59 275.316C934.964 90.1766 1169.41 -39.1968 1679.66 53.3729M-450.965 459.335C-202.592 621.633 25.6116 422.703 348.421 539.838C436.36 571.729 530.461 621.892 633.084 702.653C716.129 768.331 744.738 745.318 760.267 677.141C780.437 587.502 773.011 420.98 842.636 276.35C933.023 88.6252 1155.99 -55.056 1677.89 33.4626M-467 441.924C-141.996 654.214 126.632 296.864 620.51 700.585C955.472 974.415 412.139 -187.015 1675.95 13.38" stroke="url(#paint7_radial_1252_172671)" stroke-opacity="0.96" stroke-miterlimit="10"/>
<path d="M30.3377 982C30.3377 982 444.884 483.813 713.344 699.895C926.525 871.503 1073.71 773.072 1086.54 611.808C1096.33 488.295 895.721 318.843 933.361 248.424C992.268 138.185 1560.16 425.375 1733 632.321M14.3028 964.503C22.5734 969.933 431.381 481.055 701.191 694.465C826.517 793.585 928.972 801.774 996.15 761.436C1042.4 733.596 1070.08 679.64 1075.65 613.962C1085.78 491.57 891.585 322.29 930.323 249.372C990.243 136.548 1546.66 409.344 1731.14 612.411M-1.7322 947.093C14.8092 957.953 417.878 478.469 689.038 689.121C813.267 785.656 915.132 795.223 983.66 759.367C1031.09 734.544 1058.94 681.881 1064.76 616.117C1075.23 494.846 887.45 325.652 927.284 250.234C988.302 134.824 1533.15 393.312 1729.29 592.328M-17.7672 929.682C7.0448 945.886 404.29 475.884 676.885 683.778C800.017 777.726 901.291 788.673 971.17 757.299C1019.87 735.406 1047.88 684.122 1053.96 618.186C1065.02 498.121 883.483 328.927 924.33 251.096C986.361 133.1 1519.82 377.194 1727.51 572.332M-33.8022 912.271C-0.719517 933.905 390.703 473.298 664.732 678.52C786.767 769.883 887.534 782.294 958.679 755.403C1008.56 736.527 1036.74 686.536 1043.07 620.513C1054.55 501.569 879.348 332.461 921.292 252.13C984.419 131.549 1506.32 361.249 1725.66 552.422M-49.8372 894.86C-8.39941 921.925 377.115 470.798 652.58 673.176C773.433 762.039 873.778 775.744 946.104 753.334C997.247 737.475 1025.44 688.777 1032.19 622.668C1044.09 504.844 875.297 335.909 918.254 253.079C982.394 129.911 1492.81 345.304 1723.8 532.511M-65.8722 877.45C-16.1637 909.944 363.443 468.213 640.427 667.832C760.183 754.11 860.022 769.279 933.614 751.265C986.023 738.423 1014.3 690.931 1021.3 624.822C1033.62 508.119 871.162 339.27 915.216 253.94C980.453 128.187 1479.31 329.186 1721.94 512.515M-81.9916 860.039C-24.0124 897.877 349.687 465.713 628.19 662.488C746.764 746.266 846.265 762.815 921.039 749.283C974.798 739.543 1003.07 693.259 1010.41 627.063C1023.16 511.481 867.026 342.718 912.178 254.975C978.427 126.636 1465.89 313.326 1720.17 492.605M-98.0266 842.628C-31.7767 885.896 335.931 463.213 616.037 657.23C733.43 738.509 832.678 756.523 908.549 747.301C963.658 740.578 991.931 695.586 999.526 629.218C1012.69 514.842 862.976 346.079 909.139 255.837C976.402 124.912 1452.39 297.209 1718.32 472.608M-114.062 825.132C-39.541 873.83 322.174 460.714 603.884 651.8C720.095 730.666 819.006 750.059 895.974 745.146C952.434 741.526 980.706 697.74 988.639 631.287C1002.14 518.031 858.84 349.354 906.101 256.699C974.461 123.188 1438.88 281.091 1716.46 452.526M-130.097 807.721C-47.3053 861.849 308.418 458.3 591.731 646.456C706.677 722.822 805.503 738.94 883.483 743.163C941.209 746.266 969.482 700.068 977.752 633.528C991.678 521.393 854.789 352.888 903.063 257.647C972.435 121.55 1425.38 265.145 1714.6 432.615M-146.132 790.31C-55.0697 849.782 294.577 455.887 579.494 641.113C693.258 715.065 791.746 737.475 870.909 741.095C930.069 743.767 958.257 702.309 966.865 635.683C981.128 524.668 850.654 356.25 900.025 258.595C970.494 119.913 1411.88 249.114 1712.75 412.705M-162.166 772.9C-62.834 837.802 280.737 453.56 567.341 635.855C679.839 707.394 778.074 731.355 858.418 739.112C918.929 744.973 947.117 704.55 955.978 637.924C970.663 528.029 846.603 359.697 896.986 259.543C968.469 118.275 1398.46 233.168 1710.89 392.709M-178.201 755.489C-70.5983 825.821 266.896 451.233 555.188 630.511C666.42 699.637 764.487 725.149 845.928 737.13C907.789 746.266 935.892 706.877 945.176 640.078C960.198 531.305 842.552 363.059 894.033 260.491C966.612 116.637 1385.04 217.137 1709.12 372.799M-194.236 738.078C-78.3626 813.84 252.971 448.992 543.035 625.167C652.917 691.879 750.815 718.944 833.353 735.061C896.565 747.387 924.668 709.118 934.205 642.233C949.564 534.666 838.332 366.42 890.91 261.353C964.502 114.914 1371.45 201.019 1707.18 352.716M-210.271 720.667C-86.0425 801.774 238.961 446.751 530.882 619.823C639.498 684.208 737.227 712.824 820.863 733.079C885.424 748.68 913.444 711.445 923.318 644.474C939.015 538.028 834.281 369.954 887.872 262.387C962.561 113.362 1357.95 185.16 1705.32 332.892M-226.306 703.257C-93.8068 789.793 225.036 444.596 518.73 614.566C625.995 676.537 723.555 706.704 808.372 731.01C874.2 749.886 902.303 713.686 912.515 646.629C928.55 541.303 830.23 373.316 884.918 263.249C960.62 111.638 1344.53 169.042 1703.55 312.895M-242.426 685.76C-101.656 777.726 210.942 442.441 506.492 609.136C612.492 668.866 709.799 700.499 795.797 728.942C862.975 751.093 890.994 715.927 901.544 648.697C917.916 544.492 826.095 376.591 881.795 264.111C958.51 109.914 1331.03 153.01 1701.61 292.813M-258.461 668.349C-109.42 765.746 196.848 440.373 494.34 603.792C598.989 661.281 696.043 694.465 783.223 726.959C851.667 752.472 879.686 718.168 890.657 650.938C907.367 547.853 821.96 380.039 878.757 265.145C956.569 108.363 1317.53 137.065 1699.75 272.989M-274.496 650.938C-117.184 753.679 182.755 438.39 482.187 598.448C585.486 653.697 682.371 688.346 770.732 724.891C840.442 753.679 868.546 720.409 879.77 653.093C896.818 551.129 817.824 383.486 875.719 266.007C954.544 106.639 1304.02 120.947 1697.89 252.906M-290.531 633.528C-124.948 741.698 168.661 436.494 470.034 593.19C571.983 646.198 668.615 682.398 758.242 722.908C829.218 755.058 857.321 722.736 868.967 655.334C886.353 554.49 813.858 386.934 872.85 267.042C952.771 105.088 1290.69 105.088 1696.2 233.082M-306.566 616.117C-132.713 729.718 154.482 434.684 457.881 587.846C558.48 638.613 654.943 676.279 745.751 720.84C817.993 756.351 846.097 724.977 858.081 657.489C875.804 557.766 809.722 390.295 869.811 267.903C950.746 103.364 1277.27 88.9699 1694.35 213.086M-322.601 598.706C-140.477 717.737 140.304 432.96 445.728 582.502C544.892 631.028 641.102 670.245 733.261 718.857C806.769 757.644 834.872 727.218 847.278 659.644C865.254 561.041 805.756 393.657 866.858 268.852C948.889 101.812 1263.85 72.9384 1692.66 193.089M-338.636 581.296C-148.241 705.67 126.041 431.323 433.575 577.159C531.389 623.53 627.346 664.126 720.686 716.789C795.375 758.936 823.648 729.459 836.307 661.799C854.62 564.316 801.536 397.018 863.735 269.714C946.779 100.089 1250.26 56.9067 1690.72 173.093M-354.671 563.885C-156.006 693.689 111.779 429.771 421.423 571.815C517.801 616.031 613.589 658.092 708.196 714.806C784.151 760.316 812.423 731.786 825.504 664.04C844.155 567.678 797.57 400.552 860.781 270.748C944.923 98.5372 1236.84 40.9613 1688.95 153.183M-370.706 546.388C-163.686 681.623 97.5159 428.22 409.27 566.471C504.214 608.619 599.749 652.059 695.621 712.738C772.758 761.608 801.114 734.027 814.533 666.194C833.437 570.953 793.35 403.914 857.659 271.61C942.813 96.8134 1223.26 24.9297 1687 133.186M-386.741 528.978C-171.534 669.642 83.1688 426.841 397.032 561.127C490.626 601.206 585.908 645.939 683.13 710.669C761.533 762.815 789.89 736.182 803.73 668.263C822.888 574.142 789.299 407.189 854.705 272.472C940.872 95.0896 1209.92 8.81187 1685.23 113.19M-402.86 511.567C-179.299 657.575 68.8217 425.634 384.88 555.783C477.039 593.794 572.067 639.906 670.556 708.687C750.14 764.194 778.496 738.509 792.759 670.504C812.254 577.503 785.164 410.637 851.582 273.42C938.846 93.4519 1196.33 -7.21974 1683.29 93.1933M-418.895 494.156C-187.063 645.595 54.3902 424.513 372.727 550.439C463.536 586.381 558.226 633.873 658.065 706.704C738.831 765.573 767.272 740.836 781.957 672.745C801.705 580.865 781.113 414.17 848.628 274.454C936.905 91.9005 1182.92 -23.079 1681.52 73.3693M-434.93 476.746C-194.827 633.614 40.0431 423.479 360.574 545.182C449.948 579.141 544.386 627.839 645.575 704.636C727.522 766.866 755.879 742.991 771.07 674.9C790.902 584.14 777.062 417.532 845.59 275.316C934.964 90.1766 1169.41 -39.1968 1679.66 53.3729M-450.965 459.335C-202.592 621.633 25.6116 422.703 348.421 539.838C436.36 571.729 530.461 621.892 633.084 702.653C716.129 768.331 744.738 745.318 760.267 677.141C780.437 587.502 773.011 420.98 842.636 276.35C933.023 88.6252 1155.99 -55.056 1677.89 33.4626M-467 441.924C-141.996 654.214 126.632 296.864 620.51 700.585C955.472 974.415 412.139 -187.015 1675.95 13.38" stroke="url(#paint8_radial_1252_172671)" stroke-opacity="0.96" stroke-miterlimit="10"/>
<path d="M30.3377 982C30.3377 982 444.884 483.813 713.344 699.895C926.525 871.503 1073.71 773.072 1086.54 611.808C1096.33 488.295 895.721 318.843 933.361 248.424C992.268 138.185 1560.16 425.375 1733 632.321M14.3028 964.503C22.5734 969.933 431.381 481.055 701.191 694.465C826.517 793.585 928.972 801.774 996.15 761.436C1042.4 733.596 1070.08 679.64 1075.65 613.962C1085.78 491.57 891.585 322.29 930.323 249.372C990.243 136.548 1546.66 409.344 1731.14 612.411M-1.7322 947.093C14.8092 957.953 417.878 478.469 689.038 689.121C813.267 785.656 915.132 795.223 983.66 759.367C1031.09 734.544 1058.94 681.881 1064.76 616.117C1075.23 494.846 887.45 325.652 927.284 250.234C988.302 134.824 1533.15 393.312 1729.29 592.328M-17.7672 929.682C7.0448 945.886 404.29 475.884 676.885 683.778C800.017 777.726 901.291 788.673 971.17 757.299C1019.87 735.406 1047.88 684.122 1053.96 618.186C1065.02 498.121 883.483 328.927 924.33 251.096C986.361 133.1 1519.82 377.194 1727.51 572.332M-33.8022 912.271C-0.719517 933.905 390.703 473.298 664.732 678.52C786.767 769.883 887.534 782.294 958.679 755.403C1008.56 736.527 1036.74 686.536 1043.07 620.513C1054.55 501.569 879.348 332.461 921.292 252.13C984.419 131.549 1506.32 361.249 1725.66 552.422M-49.8372 894.86C-8.39941 921.925 377.115 470.798 652.58 673.176C773.433 762.039 873.778 775.744 946.104 753.334C997.247 737.475 1025.44 688.777 1032.19 622.668C1044.09 504.844 875.297 335.909 918.254 253.079C982.394 129.911 1492.81 345.304 1723.8 532.511M-65.8722 877.45C-16.1637 909.944 363.443 468.213 640.427 667.832C760.183 754.11 860.022 769.279 933.614 751.265C986.023 738.423 1014.3 690.931 1021.3 624.822C1033.62 508.119 871.162 339.27 915.216 253.94C980.453 128.187 1479.31 329.186 1721.94 512.515M-81.9916 860.039C-24.0124 897.877 349.687 465.713 628.19 662.488C746.764 746.266 846.265 762.815 921.039 749.283C974.798 739.543 1003.07 693.259 1010.41 627.063C1023.16 511.481 867.026 342.718 912.178 254.975C978.427 126.636 1465.89 313.326 1720.17 492.605M-98.0266 842.628C-31.7767 885.896 335.931 463.213 616.037 657.23C733.43 738.509 832.678 756.523 908.549 747.301C963.658 740.578 991.931 695.586 999.526 629.218C1012.69 514.842 862.976 346.079 909.139 255.837C976.402 124.912 1452.39 297.209 1718.32 472.608M-114.062 825.132C-39.541 873.83 322.174 460.714 603.884 651.8C720.095 730.666 819.006 750.059 895.974 745.146C952.434 741.526 980.706 697.74 988.639 631.287C1002.14 518.031 858.84 349.354 906.101 256.699C974.461 123.188 1438.88 281.091 1716.46 452.526M-130.097 807.721C-47.3053 861.849 308.418 458.3 591.731 646.456C706.677 722.822 805.503 738.94 883.483 743.163C941.209 746.266 969.482 700.068 977.752 633.528C991.678 521.393 854.789 352.888 903.063 257.647C972.435 121.55 1425.38 265.145 1714.6 432.615M-146.132 790.31C-55.0697 849.782 294.577 455.887 579.494 641.113C693.258 715.065 791.746 737.475 870.909 741.095C930.069 743.767 958.257 702.309 966.865 635.683C981.128 524.668 850.654 356.25 900.025 258.595C970.494 119.913 1411.88 249.114 1712.75 412.705M-162.166 772.9C-62.834 837.802 280.737 453.56 567.341 635.855C679.839 707.394 778.074 731.355 858.418 739.112C918.929 744.973 947.117 704.55 955.978 637.924C970.663 528.029 846.603 359.697 896.986 259.543C968.469 118.275 1398.46 233.168 1710.89 392.709M-178.201 755.489C-70.5983 825.821 266.896 451.233 555.188 630.511C666.42 699.637 764.487 725.149 845.928 737.13C907.789 746.266 935.892 706.877 945.176 640.078C960.198 531.305 842.552 363.059 894.033 260.491C966.612 116.637 1385.04 217.137 1709.12 372.799M-194.236 738.078C-78.3626 813.84 252.971 448.992 543.035 625.167C652.917 691.879 750.815 718.944 833.353 735.061C896.565 747.387 924.668 709.118 934.205 642.233C949.564 534.666 838.332 366.42 890.91 261.353C964.502 114.914 1371.45 201.019 1707.18 352.716M-210.271 720.667C-86.0425 801.774 238.961 446.751 530.882 619.823C639.498 684.208 737.227 712.824 820.863 733.079C885.424 748.68 913.444 711.445 923.318 644.474C939.015 538.028 834.281 369.954 887.872 262.387C962.561 113.362 1357.95 185.16 1705.32 332.892M-226.306 703.257C-93.8068 789.793 225.036 444.596 518.73 614.566C625.995 676.537 723.555 706.704 808.372 731.01C874.2 749.886 902.303 713.686 912.515 646.629C928.55 541.303 830.23 373.316 884.918 263.249C960.62 111.638 1344.53 169.042 1703.55 312.895M-242.426 685.76C-101.656 777.726 210.942 442.441 506.492 609.136C612.492 668.866 709.799 700.499 795.797 728.942C862.975 751.093 890.994 715.927 901.544 648.697C917.916 544.492 826.095 376.591 881.795 264.111C958.51 109.914 1331.03 153.01 1701.61 292.813M-258.461 668.349C-109.42 765.746 196.848 440.373 494.34 603.792C598.989 661.281 696.043 694.465 783.223 726.959C851.667 752.472 879.686 718.168 890.657 650.938C907.367 547.853 821.96 380.039 878.757 265.145C956.569 108.363 1317.53 137.065 1699.75 272.989M-274.496 650.938C-117.184 753.679 182.755 438.39 482.187 598.448C585.486 653.697 682.371 688.346 770.732 724.891C840.442 753.679 868.546 720.409 879.77 653.093C896.818 551.129 817.824 383.486 875.719 266.007C954.544 106.639 1304.02 120.947 1697.89 252.906M-290.531 633.528C-124.948 741.698 168.661 436.494 470.034 593.19C571.983 646.198 668.615 682.398 758.242 722.908C829.218 755.058 857.321 722.736 868.967 655.334C886.353 554.49 813.858 386.934 872.85 267.042C952.771 105.088 1290.69 105.088 1696.2 233.082M-306.566 616.117C-132.713 729.718 154.482 434.684 457.881 587.846C558.48 638.613 654.943 676.279 745.751 720.84C817.993 756.351 846.097 724.977 858.081 657.489C875.804 557.766 809.722 390.295 869.811 267.903C950.746 103.364 1277.27 88.9699 1694.35 213.086M-322.601 598.706C-140.477 717.737 140.304 432.96 445.728 582.502C544.892 631.028 641.102 670.245 733.261 718.857C806.769 757.644 834.872 727.218 847.278 659.644C865.254 561.041 805.756 393.657 866.858 268.852C948.889 101.812 1263.85 72.9384 1692.66 193.089M-338.636 581.296C-148.241 705.67 126.041 431.323 433.575 577.159C531.389 623.53 627.346 664.126 720.686 716.789C795.375 758.936 823.648 729.459 836.307 661.799C854.62 564.316 801.536 397.018 863.735 269.714C946.779 100.089 1250.26 56.9067 1690.72 173.093M-354.671 563.885C-156.006 693.689 111.779 429.771 421.423 571.815C517.801 616.031 613.589 658.092 708.196 714.806C784.151 760.316 812.423 731.786 825.504 664.04C844.155 567.678 797.57 400.552 860.781 270.748C944.923 98.5372 1236.84 40.9613 1688.95 153.183M-370.706 546.388C-163.686 681.623 97.5159 428.22 409.27 566.471C504.214 608.619 599.749 652.059 695.621 712.738C772.758 761.608 801.114 734.027 814.533 666.194C833.437 570.953 793.35 403.914 857.659 271.61C942.813 96.8134 1223.26 24.9297 1687 133.186M-386.741 528.978C-171.534 669.642 83.1688 426.841 397.032 561.127C490.626 601.206 585.908 645.939 683.13 710.669C761.533 762.815 789.89 736.182 803.73 668.263C822.888 574.142 789.299 407.189 854.705 272.472C940.872 95.0896 1209.92 8.81187 1685.23 113.19M-402.86 511.567C-179.299 657.575 68.8217 425.634 384.88 555.783C477.039 593.794 572.067 639.906 670.556 708.687C750.14 764.194 778.496 738.509 792.759 670.504C812.254 577.503 785.164 410.637 851.582 273.42C938.846 93.4519 1196.33 -7.21974 1683.29 93.1933M-418.895 494.156C-187.063 645.595 54.3902 424.513 372.727 550.439C463.536 586.381 558.226 633.873 658.065 706.704C738.831 765.573 767.272 740.836 781.957 672.745C801.705 580.865 781.113 414.17 848.628 274.454C936.905 91.9005 1182.92 -23.079 1681.52 73.3693M-434.93 476.746C-194.827 633.614 40.0431 423.479 360.574 545.182C449.948 579.141 544.386 627.839 645.575 704.636C727.522 766.866 755.879 742.991 771.07 674.9C790.902 584.14 777.062 417.532 845.59 275.316C934.964 90.1766 1169.41 -39.1968 1679.66 53.3729M-450.965 459.335C-202.592 621.633 25.6116 422.703 348.421 539.838C436.36 571.729 530.461 621.892 633.084 702.653C716.129 768.331 744.738 745.318 760.267 677.141C780.437 587.502 773.011 420.98 842.636 276.35C933.023 88.6252 1155.99 -55.056 1677.89 33.4626M-467 441.924C-141.996 654.214 126.632 296.864 620.51 700.585C955.472 974.415 412.139 -187.015 1675.95 13.38" stroke="url(#paint9_radial_1252_172671)" stroke-miterlimit="10"/>
<path d="M30.3377 982C30.3377 982 444.884 483.813 713.344 699.895C926.525 871.503 1073.71 773.072 1086.54 611.808C1096.33 488.295 895.721 318.843 933.361 248.424C992.268 138.185 1560.16 425.375 1733 632.321M14.3028 964.503C22.5734 969.933 431.381 481.055 701.191 694.465C826.517 793.585 928.972 801.774 996.15 761.436C1042.4 733.596 1070.08 679.64 1075.65 613.962C1085.78 491.57 891.585 322.29 930.323 249.372C990.243 136.548 1546.66 409.344 1731.14 612.411M-1.7322 947.093C14.8092 957.953 417.878 478.469 689.038 689.121C813.267 785.656 915.132 795.223 983.66 759.367C1031.09 734.544 1058.94 681.881 1064.76 616.117C1075.23 494.846 887.45 325.652 927.284 250.234C988.302 134.824 1533.15 393.312 1729.29 592.328M-17.7672 929.682C7.0448 945.886 404.29 475.884 676.885 683.778C800.017 777.726 901.291 788.673 971.17 757.299C1019.87 735.406 1047.88 684.122 1053.96 618.186C1065.02 498.121 883.483 328.927 924.33 251.096C986.361 133.1 1519.82 377.194 1727.51 572.332M-33.8022 912.271C-0.719517 933.905 390.703 473.298 664.732 678.52C786.767 769.883 887.534 782.294 958.679 755.403C1008.56 736.527 1036.74 686.536 1043.07 620.513C1054.55 501.569 879.348 332.461 921.292 252.13C984.419 131.549 1506.32 361.249 1725.66 552.422M-49.8372 894.86C-8.39941 921.925 377.115 470.798 652.58 673.176C773.433 762.039 873.778 775.744 946.104 753.334C997.247 737.475 1025.44 688.777 1032.19 622.668C1044.09 504.844 875.297 335.909 918.254 253.079C982.394 129.911 1492.81 345.304 1723.8 532.511M-65.8722 877.45C-16.1637 909.944 363.443 468.213 640.427 667.832C760.183 754.11 860.022 769.279 933.614 751.265C986.023 738.423 1014.3 690.931 1021.3 624.822C1033.62 508.119 871.162 339.27 915.216 253.94C980.453 128.187 1479.31 329.186 1721.94 512.515M-81.9916 860.039C-24.0124 897.877 349.687 465.713 628.19 662.488C746.764 746.266 846.265 762.815 921.039 749.283C974.798 739.543 1003.07 693.259 1010.41 627.063C1023.16 511.481 867.026 342.718 912.178 254.975C978.427 126.636 1465.89 313.326 1720.17 492.605M-98.0266 842.628C-31.7767 885.896 335.931 463.213 616.037 657.23C733.43 738.509 832.678 756.523 908.549 747.301C963.658 740.578 991.931 695.586 999.526 629.218C1012.69 514.842 862.976 346.079 909.139 255.837C976.402 124.912 1452.39 297.209 1718.32 472.608M-114.062 825.132C-39.541 873.83 322.174 460.714 603.884 651.8C720.095 730.666 819.006 750.059 895.974 745.146C952.434 741.526 980.706 697.74 988.639 631.287C1002.14 518.031 858.84 349.354 906.101 256.699C974.461 123.188 1438.88 281.091 1716.46 452.526M-130.097 807.721C-47.3053 861.849 308.418 458.3 591.731 646.456C706.677 722.822 805.503 738.94 883.483 743.163C941.209 746.266 969.482 700.068 977.752 633.528C991.678 521.393 854.789 352.888 903.063 257.647C972.435 121.55 1425.38 265.145 1714.6 432.615M-146.132 790.31C-55.0697 849.782 294.577 455.887 579.494 641.113C693.258 715.065 791.746 737.475 870.909 741.095C930.069 743.767 958.257 702.309 966.865 635.683C981.128 524.668 850.654 356.25 900.025 258.595C970.494 119.913 1411.88 249.114 1712.75 412.705M-162.166 772.9C-62.834 837.802 280.737 453.56 567.341 635.855C679.839 707.394 778.074 731.355 858.418 739.112C918.929 744.973 947.117 704.55 955.978 637.924C970.663 528.029 846.603 359.697 896.986 259.543C968.469 118.275 1398.46 233.168 1710.89 392.709M-178.201 755.489C-70.5983 825.821 266.896 451.233 555.188 630.511C666.42 699.637 764.487 725.149 845.928 737.13C907.789 746.266 935.892 706.877 945.176 640.078C960.198 531.305 842.552 363.059 894.033 260.491C966.612 116.637 1385.04 217.137 1709.12 372.799M-194.236 738.078C-78.3626 813.84 252.971 448.992 543.035 625.167C652.917 691.879 750.815 718.944 833.353 735.061C896.565 747.387 924.668 709.118 934.205 642.233C949.564 534.666 838.332 366.42 890.91 261.353C964.502 114.914 1371.45 201.019 1707.18 352.716M-210.271 720.667C-86.0425 801.774 238.961 446.751 530.882 619.823C639.498 684.208 737.227 712.824 820.863 733.079C885.424 748.68 913.444 711.445 923.318 644.474C939.015 538.028 834.281 369.954 887.872 262.387C962.561 113.362 1357.95 185.16 1705.32 332.892M-226.306 703.257C-93.8068 789.793 225.036 444.596 518.73 614.566C625.995 676.537 723.555 706.704 808.372 731.01C874.2 749.886 902.303 713.686 912.515 646.629C928.55 541.303 830.23 373.316 884.918 263.249C960.62 111.638 1344.53 169.042 1703.55 312.895M-242.426 685.76C-101.656 777.726 210.942 442.441 506.492 609.136C612.492 668.866 709.799 700.499 795.797 728.942C862.975 751.093 890.994 715.927 901.544 648.697C917.916 544.492 826.095 376.591 881.795 264.111C958.51 109.914 1331.03 153.01 1701.61 292.813M-258.461 668.349C-109.42 765.746 196.848 440.373 494.34 603.792C598.989 661.281 696.043 694.465 783.223 726.959C851.667 752.472 879.686 718.168 890.657 650.938C907.367 547.853 821.96 380.039 878.757 265.145C956.569 108.363 1317.53 137.065 1699.75 272.989M-274.496 650.938C-117.184 753.679 182.755 438.39 482.187 598.448C585.486 653.697 682.371 688.346 770.732 724.891C840.442 753.679 868.546 720.409 879.77 653.093C896.818 551.129 817.824 383.486 875.719 266.007C954.544 106.639 1304.02 120.947 1697.89 252.906M-290.531 633.528C-124.948 741.698 168.661 436.494 470.034 593.19C571.983 646.198 668.615 682.398 758.242 722.908C829.218 755.058 857.321 722.736 868.967 655.334C886.353 554.49 813.858 386.934 872.85 267.042C952.771 105.088 1290.69 105.088 1696.2 233.082M-306.566 616.117C-132.713 729.718 154.482 434.684 457.881 587.846C558.48 638.613 654.943 676.279 745.751 720.84C817.993 756.351 846.097 724.977 858.081 657.489C875.804 557.766 809.722 390.295 869.811 267.903C950.746 103.364 1277.27 88.9699 1694.35 213.086M-322.601 598.706C-140.477 717.737 140.304 432.96 445.728 582.502C544.892 631.028 641.102 670.245 733.261 718.857C806.769 757.644 834.872 727.218 847.278 659.644C865.254 561.041 805.756 393.657 866.858 268.852C948.889 101.812 1263.85 72.9384 1692.66 193.089M-338.636 581.296C-148.241 705.67 126.041 431.323 433.575 577.159C531.389 623.53 627.346 664.126 720.686 716.789C795.375 758.936 823.648 729.459 836.307 661.799C854.62 564.316 801.536 397.018 863.735 269.714C946.779 100.089 1250.26 56.9067 1690.72 173.093M-354.671 563.885C-156.006 693.689 111.779 429.771 421.423 571.815C517.801 616.031 613.589 658.092 708.196 714.806C784.151 760.316 812.423 731.786 825.504 664.04C844.155 567.678 797.57 400.552 860.781 270.748C944.923 98.5372 1236.84 40.9613 1688.95 153.183M-370.706 546.388C-163.686 681.623 97.5159 428.22 409.27 566.471C504.214 608.619 599.749 652.059 695.621 712.738C772.758 761.608 801.114 734.027 814.533 666.194C833.437 570.953 793.35 403.914 857.659 271.61C942.813 96.8134 1223.26 24.9297 1687 133.186M-386.741 528.978C-171.534 669.642 83.1688 426.841 397.032 561.127C490.626 601.206 585.908 645.939 683.13 710.669C761.533 762.815 789.89 736.182 803.73 668.263C822.888 574.142 789.299 407.189 854.705 272.472C940.872 95.0896 1209.92 8.81187 1685.23 113.19M-402.86 511.567C-179.299 657.575 68.8217 425.634 384.88 555.783C477.039 593.794 572.067 639.906 670.556 708.687C750.14 764.194 778.496 738.509 792.759 670.504C812.254 577.503 785.164 410.637 851.582 273.42C938.846 93.4519 1196.33 -7.21974 1683.29 93.1933M-418.895 494.156C-187.063 645.595 54.3902 424.513 372.727 550.439C463.536 586.381 558.226 633.873 658.065 706.704C738.831 765.573 767.272 740.836 781.957 672.745C801.705 580.865 781.113 414.17 848.628 274.454C936.905 91.9005 1182.92 -23.079 1681.52 73.3693M-434.93 476.746C-194.827 633.614 40.0431 423.479 360.574 545.182C449.948 579.141 544.386 627.839 645.575 704.636C727.522 766.866 755.879 742.991 771.07 674.9C790.902 584.14 777.062 417.532 845.59 275.316C934.964 90.1766 1169.41 -39.1968 1679.66 53.3729M-450.965 459.335C-202.592 621.633 25.6116 422.703 348.421 539.838C436.36 571.729 530.461 621.892 633.084 702.653C716.129 768.331 744.738 745.318 760.267 677.141C780.437 587.502 773.011 420.98 842.636 276.35C933.023 88.6252 1155.99 -55.056 1677.89 33.4626M-467 441.924C-141.996 654.214 126.632 296.864 620.51 700.585C955.472 974.415 412.139 -187.015 1675.95 13.38" stroke="url(#paint10_linear_1252_172671)" stroke-opacity="0.8" stroke-miterlimit="10"/>
<path d="M30.3377 982C30.3377 982 444.884 483.813 713.344 699.895C926.525 871.503 1073.71 773.072 1086.54 611.808C1096.33 488.295 895.721 318.843 933.361 248.424C992.268 138.185 1560.16 425.375 1733 632.321M14.3028 964.503C22.5734 969.933 431.381 481.055 701.191 694.465C826.517 793.585 928.972 801.774 996.15 761.436C1042.4 733.596 1070.08 679.64 1075.65 613.962C1085.78 491.57 891.585 322.29 930.323 249.372C990.243 136.548 1546.66 409.344 1731.14 612.411M-1.7322 947.093C14.8092 957.953 417.878 478.469 689.038 689.121C813.267 785.656 915.132 795.223 983.66 759.367C1031.09 734.544 1058.94 681.881 1064.76 616.117C1075.23 494.846 887.45 325.652 927.284 250.234C988.302 134.824 1533.15 393.312 1729.29 592.328M-17.7672 929.682C7.0448 945.886 404.29 475.884 676.885 683.778C800.017 777.726 901.291 788.673 971.17 757.299C1019.87 735.406 1047.88 684.122 1053.96 618.186C1065.02 498.121 883.483 328.927 924.33 251.096C986.361 133.1 1519.82 377.194 1727.51 572.332M-33.8022 912.271C-0.719517 933.905 390.703 473.298 664.732 678.52C786.767 769.883 887.534 782.294 958.679 755.403C1008.56 736.527 1036.74 686.536 1043.07 620.513C1054.55 501.569 879.348 332.461 921.292 252.13C984.419 131.549 1506.32 361.249 1725.66 552.422M-49.8372 894.86C-8.39941 921.925 377.115 470.798 652.58 673.176C773.433 762.039 873.778 775.744 946.104 753.334C997.247 737.475 1025.44 688.777 1032.19 622.668C1044.09 504.844 875.297 335.909 918.254 253.079C982.394 129.911 1492.81 345.304 1723.8 532.511M-65.8722 877.45C-16.1637 909.944 363.443 468.213 640.427 667.832C760.183 754.11 860.022 769.279 933.614 751.265C986.023 738.423 1014.3 690.931 1021.3 624.822C1033.62 508.119 871.162 339.27 915.216 253.94C980.453 128.187 1479.31 329.186 1721.94 512.515M-81.9916 860.039C-24.0124 897.877 349.687 465.713 628.19 662.488C746.764 746.266 846.265 762.815 921.039 749.283C974.798 739.543 1003.07 693.259 1010.41 627.063C1023.16 511.481 867.026 342.718 912.178 254.975C978.427 126.636 1465.89 313.326 1720.17 492.605M-98.0266 842.628C-31.7767 885.896 335.931 463.213 616.037 657.23C733.43 738.509 832.678 756.523 908.549 747.301C963.658 740.578 991.931 695.586 999.526 629.218C1012.69 514.842 862.976 346.079 909.139 255.837C976.402 124.912 1452.39 297.209 1718.32 472.608M-114.062 825.132C-39.541 873.83 322.174 460.714 603.884 651.8C720.095 730.666 819.006 750.059 895.974 745.146C952.434 741.526 980.706 697.74 988.639 631.287C1002.14 518.031 858.84 349.354 906.101 256.699C974.461 123.188 1438.88 281.091 1716.46 452.526M-130.097 807.721C-47.3053 861.849 308.418 458.3 591.731 646.456C706.677 722.822 805.503 738.94 883.483 743.163C941.209 746.266 969.482 700.068 977.752 633.528C991.678 521.393 854.789 352.888 903.063 257.647C972.435 121.55 1425.38 265.145 1714.6 432.615M-146.132 790.31C-55.0697 849.782 294.577 455.887 579.494 641.113C693.258 715.065 791.746 737.475 870.909 741.095C930.069 743.767 958.257 702.309 966.865 635.683C981.128 524.668 850.654 356.25 900.025 258.595C970.494 119.913 1411.88 249.114 1712.75 412.705M-162.166 772.9C-62.834 837.802 280.737 453.56 567.341 635.855C679.839 707.394 778.074 731.355 858.418 739.112C918.929 744.973 947.117 704.55 955.978 637.924C970.663 528.029 846.603 359.697 896.986 259.543C968.469 118.275 1398.46 233.168 1710.89 392.709M-178.201 755.489C-70.5983 825.821 266.896 451.233 555.188 630.511C666.42 699.637 764.487 725.149 845.928 737.13C907.789 746.266 935.892 706.877 945.176 640.078C960.198 531.305 842.552 363.059 894.033 260.491C966.612 116.637 1385.04 217.137 1709.12 372.799M-194.236 738.078C-78.3626 813.84 252.971 448.992 543.035 625.167C652.917 691.879 750.815 718.944 833.353 735.061C896.565 747.387 924.668 709.118 934.205 642.233C949.564 534.666 838.332 366.42 890.91 261.353C964.502 114.914 1371.45 201.019 1707.18 352.716M-210.271 720.667C-86.0425 801.774 238.961 446.751 530.882 619.823C639.498 684.208 737.227 712.824 820.863 733.079C885.424 748.68 913.444 711.445 923.318 644.474C939.015 538.028 834.281 369.954 887.872 262.387C962.561 113.362 1357.95 185.16 1705.32 332.892M-226.306 703.257C-93.8068 789.793 225.036 444.596 518.73 614.566C625.995 676.537 723.555 706.704 808.372 731.01C874.2 749.886 902.303 713.686 912.515 646.629C928.55 541.303 830.23 373.316 884.918 263.249C960.62 111.638 1344.53 169.042 1703.55 312.895M-242.426 685.76C-101.656 777.726 210.942 442.441 506.492 609.136C612.492 668.866 709.799 700.499 795.797 728.942C862.975 751.093 890.994 715.927 901.544 648.697C917.916 544.492 826.095 376.591 881.795 264.111C958.51 109.914 1331.03 153.01 1701.61 292.813M-258.461 668.349C-109.42 765.746 196.848 440.373 494.34 603.792C598.989 661.281 696.043 694.465 783.223 726.959C851.667 752.472 879.686 718.168 890.657 650.938C907.367 547.853 821.96 380.039 878.757 265.145C956.569 108.363 1317.53 137.065 1699.75 272.989M-274.496 650.938C-117.184 753.679 182.755 438.39 482.187 598.448C585.486 653.697 682.371 688.346 770.732 724.891C840.442 753.679 868.546 720.409 879.77 653.093C896.818 551.129 817.824 383.486 875.719 266.007C954.544 106.639 1304.02 120.947 1697.89 252.906M-290.531 633.528C-124.948 741.698 168.661 436.494 470.034 593.19C571.983 646.198 668.615 682.398 758.242 722.908C829.218 755.058 857.321 722.736 868.967 655.334C886.353 554.49 813.858 386.934 872.85 267.042C952.771 105.088 1290.69 105.088 1696.2 233.082M-306.566 616.117C-132.713 729.718 154.482 434.684 457.881 587.846C558.48 638.613 654.943 676.279 745.751 720.84C817.993 756.351 846.097 724.977 858.081 657.489C875.804 557.766 809.722 390.295 869.811 267.903C950.746 103.364 1277.27 88.9699 1694.35 213.086M-322.601 598.706C-140.477 717.737 140.304 432.96 445.728 582.502C544.892 631.028 641.102 670.245 733.261 718.857C806.769 757.644 834.872 727.218 847.278 659.644C865.254 561.041 805.756 393.657 866.858 268.852C948.889 101.812 1263.85 72.9384 1692.66 193.089M-338.636 581.296C-148.241 705.67 126.041 431.323 433.575 577.159C531.389 623.53 627.346 664.126 720.686 716.789C795.375 758.936 823.648 729.459 836.307 661.799C854.62 564.316 801.536 397.018 863.735 269.714C946.779 100.089 1250.26 56.9067 1690.72 173.093M-354.671 563.885C-156.006 693.689 111.779 429.771 421.423 571.815C517.801 616.031 613.589 658.092 708.196 714.806C784.151 760.316 812.423 731.786 825.504 664.04C844.155 567.678 797.57 400.552 860.781 270.748C944.923 98.5372 1236.84 40.9613 1688.95 153.183M-370.706 546.388C-163.686 681.623 97.5159 428.22 409.27 566.471C504.214 608.619 599.749 652.059 695.621 712.738C772.758 761.608 801.114 734.027 814.533 666.194C833.437 570.953 793.35 403.914 857.659 271.61C942.813 96.8134 1223.26 24.9297 1687 133.186M-386.741 528.978C-171.534 669.642 83.1688 426.841 397.032 561.127C490.626 601.206 585.908 645.939 683.13 710.669C761.533 762.815 789.89 736.182 803.73 668.263C822.888 574.142 789.299 407.189 854.705 272.472C940.872 95.0896 1209.92 8.81187 1685.23 113.19M-402.86 511.567C-179.299 657.575 68.8217 425.634 384.88 555.783C477.039 593.794 572.067 639.906 670.556 708.687C750.14 764.194 778.496 738.509 792.759 670.504C812.254 577.503 785.164 410.637 851.582 273.42C938.846 93.4519 1196.33 -7.21974 1683.29 93.1933M-418.895 494.156C-187.063 645.595 54.3902 424.513 372.727 550.439C463.536 586.381 558.226 633.873 658.065 706.704C738.831 765.573 767.272 740.836 781.957 672.745C801.705 580.865 781.113 414.17 848.628 274.454C936.905 91.9005 1182.92 -23.079 1681.52 73.3693M-434.93 476.746C-194.827 633.614 40.0431 423.479 360.574 545.182C449.948 579.141 544.386 627.839 645.575 704.636C727.522 766.866 755.879 742.991 771.07 674.9C790.902 584.14 777.062 417.532 845.59 275.316C934.964 90.1766 1169.41 -39.1968 1679.66 53.3729M-450.965 459.335C-202.592 621.633 25.6116 422.703 348.421 539.838C436.36 571.729 530.461 621.892 633.084 702.653C716.129 768.331 744.738 745.318 760.267 677.141C780.437 587.502 773.011 420.98 842.636 276.35C933.023 88.6252 1155.99 -55.056 1677.89 33.4626M-467 441.924C-141.996 654.214 126.632 296.864 620.51 700.585C955.472 974.415 412.139 -187.015 1675.95 13.38" stroke="url(#paint11_linear_1252_172671)" stroke-opacity="0.8" stroke-miterlimit="10"/>
</g>
<defs>
<filter id="filter0_f_1252_172671" x="658.061" y="-140.793" width="962.996" height="475.79" filterUnits="userSpaceOnUse" color-interpolation-filters="sRGB">
<feFlood flood-opacity="0" result="BackgroundImageFix"/>
<feBlend mode="normal" in="SourceGraphic" in2="BackgroundImageFix" result="shape"/>
<feGaussianBlur stdDeviation="36" result="effect1_foregroundBlur_1252_172671"/>
</filter>
<filter id="filter1_f_1252_172671" x="542.791" y="629.04" width="484.881" height="213.203" filterUnits="userSpaceOnUse" color-interpolation-filters="sRGB">
<feFlood flood-opacity="0" result="BackgroundImageFix"/>
<feBlend mode="normal" in="SourceGraphic" in2="BackgroundImageFix" result="shape"/>
<feGaussianBlur stdDeviation="4" result="effect1_foregroundBlur_1252_172671"/>
</filter>
<filter id="filter2_f_1252_172671" x="182.492" y="475.99" width="603.145" height="253.349" filterUnits="userSpaceOnUse" color-interpolation-filters="sRGB">
<feFlood flood-opacity="0" result="BackgroundImageFix"/>
<feBlend mode="normal" in="SourceGraphic" in2="BackgroundImageFix" result="shape"/>
<feGaussianBlur stdDeviation="4" result="effect1_foregroundBlur_1252_172671"/>
</filter>
<filter id="filter3_f_1252_172671" x="774" y="57" width="265" height="311" filterUnits="userSpaceOnUse" color-interpolation-filters="sRGB">
<feFlood flood-opacity="0" result="BackgroundImageFix"/>
<feBlend mode="normal" in="SourceGraphic" in2="BackgroundImageFix" result="shape"/>
<feGaussianBlur stdDeviation="20" result="effect1_foregroundBlur_1252_172671"/>
</filter>
<filter id="filter4_f_1252_172671" x="-543.375" y="-89.999" width="2354.52" height="1149.11" filterUnits="userSpaceOnUse" color-interpolation-filters="sRGB">
<feFlood flood-opacity="0" result="BackgroundImageFix"/>
<feBlend mode="normal" in="SourceGraphic" in2="BackgroundImageFix" result="shape"/>
<feGaussianBlur stdDeviation="36" result="effect1_foregroundBlur_1252_172671"/>
</filter>
<radialGradient id="paint0_radial_1252_172671" cx="0" cy="0" r="1" gradientUnits="userSpaceOnUse" gradientTransform="translate(1139.56 97.1018) rotate(89.7621) scale(118.672 410.598)">
<stop stop-color="#8B2DFF"/>
<stop offset="0.322917" stop-color="#2C3BFA"/>
<stop offset="0.666667" stop-color="#0B17C3"/>
<stop offset="1" stop-color="#052C73" stop-opacity="0"/>
</radialGradient>
<radialGradient id="paint1_radial_1252_172671" cx="0" cy="0" r="1" gradientUnits="userSpaceOnUse" gradientTransform="translate(785.231 735.642) rotate(89.6866) scale(52.8219 240.75)">
<stop stop-color="#FEFFFD"/>
<stop offset="0.145833" stop-color="#FF70EE"/>
<stop offset="0.296875" stop-color="#8B2DFF"/>
<stop offset="0.447917" stop-color="#2C3BFA"/>
<stop offset="0.666667" stop-color="#0B17C3"/>
<stop offset="1" stop-color="#052C73" stop-opacity="0"/>
</radialGradient>
<radialGradient id="paint2_radial_1252_172671" cx="0" cy="0" r="1" gradientUnits="userSpaceOnUse" gradientTransform="translate(484.064 602.665) rotate(89.3983) scale(34.9079 305.474)">
<stop stop-color="#FEFFFD"/>
<stop offset="0.145833" stop-color="#FF70EE"/>
<stop offset="0.296875" stop-color="#8B2DFF"/>
<stop offset="0.447917" stop-color="#2C3BFA"/>
<stop offset="0.666667" stop-color="#0B17C3"/>
<stop offset="1" stop-color="#052C73" stop-opacity="0"/>
</radialGradient>
<radialGradient id="paint3_radial_1252_172671" cx="0" cy="0" r="1" gradientUnits="userSpaceOnUse" gradientTransform="translate(916.897 226.957) rotate(34.6469) scale(76.693 149.418)">
<stop stop-color="#FF70EE"/>
<stop offset="0.1875" stop-color="#8B2DFF"/>
<stop offset="0.364583" stop-color="#2C3BFA"/>
<stop offset="0.666667" stop-color="#0B17C3"/>
<stop offset="1" stop-color="#052C73" stop-opacity="0"/>
</radialGradient>
<radialGradient id="paint4_radial_1252_172671" cx="0" cy="0" r="1" gradientUnits="userSpaceOnUse" gradientTransform="translate(1404.92 891.266) rotate(90) scale(415.241 968.703)">
<stop offset="0.130208" stop-color="#FF00E3"/>
<stop offset="0.937677" stop-color="#FF00E3" stop-opacity="0"/>
</radialGradient>
<linearGradient id="paint5_linear_1252_172671" x1="1205.5" y1="590.5" x2="628.074" y2="-190.354" gradientUnits="userSpaceOnUse">
<stop stop-color="#FF00E3"/>
<stop offset="1" stop-color="#00C2AE"/>
</linearGradient>
<linearGradient id="paint6_linear_1252_172671" x1="1217.5" y1="639.5" x2="627.049" y2="-190.08" gradientUnits="userSpaceOnUse">
<stop stop-color="#FF00E3"/>
<stop offset="0.850663" stop-color="#00C2AE"/>
</linearGradient>
<radialGradient id="paint7_radial_1252_172671" cx="0" cy="0" r="1" gradientUnits="userSpaceOnUse" gradientTransform="translate(473.157 591.208) rotate(107.586) scale(93.853 208.96)">
<stop stop-color="#FFF5FE"/>
<stop offset="1" stop-color="#FFF5FE" stop-opacity="0"/>
</radialGradient>
<radialGradient id="paint8_radial_1252_172671" cx="0" cy="0" r="1" gradientUnits="userSpaceOnUse" gradientTransform="translate(764.825 725.666) rotate(-80.7315) scale(28.2954 95.4835)">
<stop stop-color="#FFF5FE"/>
<stop offset="1" stop-color="white" stop-opacity="0"/>
</radialGradient>
<radialGradient id="paint9_radial_1252_172671" cx="0" cy="0" r="1" gradientUnits="userSpaceOnUse" gradientTransform="translate(918 222) rotate(34.5085) scale(135.915 168.92)">
<stop stop-color="#FFD6FB"/>
<stop offset="1" stop-color="white" stop-opacity="0"/>
</radialGradient>
<linearGradient id="paint10_linear_1252_172671" x1="-279.5" y1="1107.5" x2="213.168" y2="300.287" gradientUnits="userSpaceOnUse">
<stop offset="0.226811" stop-color="#010A5A" stop-opacity="0.96"/>
<stop offset="0.786534" stop-color="#010A5B" stop-opacity="0"/>
</linearGradient>
<linearGradient id="paint11_linear_1252_172671" x1="1776" y1="224.5" x2="1144.14" y2="451.672" gradientUnits="userSpaceOnUse">
<stop stop-color="#0C2067"/>
<stop offset="0.835634" stop-color="#0C2069" stop-opacity="0"/>
</linearGradient>
<clipPath id="clip0_1252_172671">
<rect width="1440" height="900" fill="white"/>
</clipPath>
</defs>
</svg>
